<svg xmlns="http://www.w3.org/2000/svg" style="display:none" aria-hidden="true">
<symbol id="ic-home-2" viewBox="0 0 24 24" fill="none"><path d="M9.02 2.84004L3.63 7.04004C2.73 7.74004 2 9.23004 2 10.36V17.77C2 20.09 3.89 21.99 6.21 21.99H17.79C20.11 21.99 22 20.09 22 17.78V10.5C22 9.29004 21.19 7.74004 20.2 7.05004L14.02 2.72004C12.62 1.74004 10.37 1.79004 9.02 2.84004Z" stroke="currentColor" stroke-width="1.5" stroke-linecap="round" stroke-linejoin="round"/>
<path d="M12 17.99V14.99" stroke="currentColor" stroke-width="1.5" stroke-linecap="round" stroke-linejoin="round"/></symbol>
<symbol id="ic-profile-2user" viewBox="0 0 24 24" fill="none"><path d="M9.16006 10.87C9.06006 10.86 8.94006 10.86 8.83006 10.87C6.45006 10.79 4.56006 8.84 4.56006 6.44C4.56006 3.99 6.54006 2 9.00006 2C11.4501 2 13.4401 3.99 13.4401 6.44C13.4301 8.84 11.5401 10.79 9.16006 10.87Z" stroke="currentColor" stroke-width="1.5" stroke-linecap="round" stroke-linejoin="round"/>
<path d="M16.41 4C18.35 4 19.91 5.57 19.91 7.5C19.91 9.39 18.41 10.93 16.54 11C16.46 10.99 16.37 10.99 16.28 11" stroke="currentColor" stroke-width="1.5" stroke-linecap="round" stroke-linejoin="round"/>
<path d="M4.15997 14.56C1.73997 16.18 1.73997 18.82 4.15997 20.43C6.90997 22.27 11.42 22.27 14.17 20.43C16.59 18.81 16.59 16.17 14.17 14.56C11.43 12.73 6.91997 12.73 4.15997 14.56Z" stroke="currentColor" stroke-width="1.5" stroke-linecap="round" stroke-linejoin="round"/>
<path d="M18.3401 20C19.0601 19.85 19.7401 19.56 20.3001 19.13C21.8601 17.96 21.8601 16.03 20.3001 14.86C19.7501 14.44 19.0801 14.16 18.3701 14" stroke="currentColor" stroke-width="1.5" stroke-linecap="round" stroke-linejoin="round"/></symbol>
<symbol id="ic-element-3" viewBox="0 0 24 24" fill="none"><path d="M22 8.52V3.98C22 2.57 21.36 2 19.77 2H15.73C14.14 2 13.5 2.57 13.5 3.98V8.51C13.5 9.93 14.14 10.49 15.73 10.49H19.77C21.36 10.5 22 9.93 22 8.52Z" stroke="currentColor" stroke-width="1.5" stroke-linecap="round" stroke-linejoin="round"/>
<path d="M22 19.77V15.73C22 14.14 21.36 13.5 19.77 13.5H15.73C14.14 13.5 13.5 14.14 13.5 15.73V19.77C13.5 21.36 14.14 22 15.73 22H19.77C21.36 22 22 21.36 22 19.77Z" stroke="currentColor" stroke-width="1.5" stroke-linecap="round" stroke-linejoin="round"/>
<path d="M10.5 8.52V3.98C10.5 2.57 9.86 2 8.27 2H4.23C2.64 2 2 2.57 2 3.98V8.51C2 9.93 2.64 10.49 4.23 10.49H8.27C9.86 10.5 10.5 9.93 10.5 8.52Z" stroke="currentColor" stroke-width="1.5" stroke-linecap="round" stroke-linejoin="round"/>
<path d="M10.5 19.77V15.73C10.5 14.14 9.86 13.5 8.27 13.5H4.23C2.64 13.5 2 14.14 2 15.73V19.77C2 21.36 2.64 22 4.23 22H8.27C9.86 22 10.5 21.36 10.5 19.77Z" stroke="currentColor" stroke-width="1.5" stroke-linecap="round" stroke-linejoin="round"/></symbol>
<symbol id="ic-category" viewBox="0 0 24 24" fill="none"><path d="M5 10H7C9 10 10 9 10 7V5C10 3 9 2 7 2H5C3 2 2 3 2 5V7C2 9 3 10 5 10Z" stroke="currentColor" stroke-width="1.5" stroke-miterlimit="10" stroke-linecap="round" stroke-linejoin="round"/>
<path d="M17 10H19C21 10 22 9 22 7V5C22 3 21 2 19 2H17C15 2 14 3 14 5V7C14 9 15 10 17 10Z" stroke="currentColor" stroke-width="1.5" stroke-miterlimit="10" stroke-linecap="round" stroke-linejoin="round"/>
<path d="M17 22H19C21 22 22 21 22 19V17C22 15 21 14 19 14H17C15 14 14 15 14 17V19C14 21 15 22 17 22Z" stroke="currentColor" stroke-width="1.5" stroke-miterlimit="10" stroke-linecap="round" stroke-linejoin="round"/>
<path d="M5 22H7C9 22 10 21 10 19V17C10 15 9 14 7 14H5C3 14 2 15 2 17V19C2 21 3 22 5 22Z" stroke="currentColor" stroke-width="1.5" stroke-miterlimit="10" stroke-linecap="round" stroke-linejoin="round"/></symbol>
<symbol id="ic-receipt-2" viewBox="0 0 24 24" fill="none"><path d="M20 7.04V16.96C20 18.48 19.86 19.56 19.5 20.33C19.5 20.34 19.49 20.36 19.48 20.37C19.26 20.65 18.97 20.79 18.63 20.79C18.1 20.79 17.46 20.44 16.77 19.7C15.95 18.82 14.69 18.89 13.97 19.85L12.96 21.19C12.56 21.73 12.03 22 11.5 22C10.97 22 10.44 21.73 10.04 21.19L9.02002 19.84C8.31002 18.89 7.05999 18.82 6.23999 19.69L6.22998 19.7C5.09998 20.91 4.10002 21.09 3.52002 20.37C3.51002 20.36 3.5 20.34 3.5 20.33C3.14 19.56 3 18.48 3 16.96V7.04C3 5.52 3.14 4.44 3.5 3.67C3.5 3.66 3.50002 3.65 3.52002 3.64C4.09002 2.91 5.09998 3.09 6.22998 4.3L6.23999 4.31C7.05999 5.18 8.31002 5.11 9.02002 4.16L10.04 2.81C10.44 2.27 10.97 2 11.5 2C12.03 2 12.56 2.27 12.96 2.81L13.97 4.15C14.69 5.11 15.95 5.18 16.77 4.3C17.46 3.56 18.1 3.21 18.63 3.21C18.97 3.21 19.26 3.36 19.48 3.64C19.5 3.65 19.5 3.66 19.5 3.67C19.86 4.44 20 5.52 20 7.04Z" stroke="currentColor" stroke-width="1.5" stroke-linecap="round" stroke-linejoin="round"/>
<path d="M8 10.25H16" stroke="currentColor" stroke-width="1.5" stroke-linecap="round" stroke-linejoin="round"/>
<path d="M8 13.75H14" stroke="currentColor" stroke-width="1.5" stroke-linecap="round" stroke-linejoin="round"/></symbol>
<symbol id="ic-receipt-text" viewBox="0 0 24 24" fill="none"><path d="M22 6V8.42C22 10 21 11 19.42 11H16V4.01C16 2.9 16.91 2 18.02 2C19.11 2.01 20.11 2.45 20.83 3.17C21.55 3.9 22 4.9 22 6Z" stroke="currentColor" stroke-width="1.5" stroke-miterlimit="10" stroke-linecap="round" stroke-linejoin="round"/>
<path d="M2 7V21C2 21.83 2.93998 22.3 3.59998 21.8L5.31 20.52C5.71 20.22 6.27 20.26 6.63 20.62L8.28998 22.29C8.67998 22.68 9.32002 22.68 9.71002 22.29L11.39 20.61C11.74 20.26 12.3 20.22 12.69 20.52L14.4 21.8C15.06 22.29 16 21.82 16 21V4C16 2.9 16.9 2 18 2H7H6C3 2 2 3.79 2 6V7Z" stroke="currentColor" stroke-width="1.5" stroke-miterlimit="10" stroke-linecap="round" stroke-linejoin="round"/>
<path d="M6 9H12" stroke="currentColor" stroke-width="1.5" stroke-linecap="round" stroke-linejoin="round"/>
<path d="M6.75 13H11.25" stroke="currentColor" stroke-width="1.5" stroke-linecap="round" stroke-linejoin="round"/></symbol>
<symbol id="ic-receipt-item" viewBox="0 0 24 24" fill="none"><path d="M22 6V8.42C22 10 21 11 19.42 11H16V4.01C16 2.9 16.91 2 18.02 2C19.11 2.01 20.11 2.45 20.83 3.17C21.55 3.9 22 4.9 22 6Z" stroke="currentColor" stroke-width="1.5" stroke-miterlimit="10" stroke-linecap="round" stroke-linejoin="round"/>
<path d="M2 7V21C2 21.83 2.94 22.3 3.6 21.8L5.31 20.52C5.71 20.22 6.27 20.26 6.63 20.62L8.29 22.29C8.68 22.68 9.32 22.68 9.71 22.29L11.39 20.61C11.74 20.26 12.3 20.22 12.69 20.52L14.4 21.8C15.06 22.29 16 21.82 16 21V4C16 2.9 16.9 2 18 2H7H6C3 2 2 3.79 2 6V7Z" stroke="currentColor" stroke-width="1.5" stroke-miterlimit="10" stroke-linecap="round" stroke-linejoin="round"/>
<path d="M9 13.01H12" stroke="currentColor" stroke-width="1.5" stroke-linecap="round" stroke-linejoin="round"/>
<path d="M9 9.01001H12" stroke="currentColor" stroke-width="1.5" stroke-linecap="round" stroke-linejoin="round"/>
<path d="M5.99561 13H6.00459" stroke="currentColor" stroke-width="2" stroke-linecap="round" stroke-linejoin="round"/>
<path d="M5.99561 9H6.00459" stroke="currentColor" stroke-width="2" stroke-linecap="round" stroke-linejoin="round"/></symbol>
<symbol id="ic-clock" viewBox="0 0 24 24" fill="none"><path d="M22 12C22 17.52 17.52 22 12 22C6.48 22 2 17.52 2 12C2 6.48 6.48 2 12 2C17.52 2 22 6.48 22 12Z" stroke="currentColor" stroke-width="1.5" stroke-linecap="round" stroke-linejoin="round"/><path d="M12 7V12.5L15.5 14.5" stroke="currentColor" stroke-width="1.5" stroke-linecap="round" stroke-linejoin="round"/></symbol>
<symbol id="ic-timer" viewBox="0 0 24 24" fill="none"><path d="M15.24 2H8.76004C5.00004 2 4.71004 5.38 6.74004 7.22L17.26 16.78C19.29 18.62 19 22 15.24 22H8.76004C5.00004 22 4.71004 18.62 6.74004 16.78L17.26 7.22C19.29 5.38 19 2 15.24 2Z" stroke="currentColor" stroke-width="1.5" stroke-linecap="round" stroke-linejoin="round"/></symbol>
<symbol id="ic-setting-2" viewBox="0 0 24 24" fill="none"><path d="M12 15C13.6569 15 15 13.6569 15 12C15 10.3431 13.6569 9 12 9C10.3431 9 9 10.3431 9 12C9 13.6569 10.3431 15 12 15Z" stroke="currentColor" stroke-width="1.5" stroke-miterlimit="10" stroke-linecap="round" stroke-linejoin="round"/>
<path d="M2 12.8799V11.1199C2 10.0799 2.85 9.21994 3.9 9.21994C5.71 9.21994 6.45 7.93994 5.54 6.36994C5.02 5.46994 5.33 4.29994 6.24 3.77994L7.97 2.78994C8.76 2.31994 9.78 2.59994 10.25 3.38994L10.36 3.57994C11.26 5.14994 12.74 5.14994 13.65 3.57994L13.76 3.38994C14.23 2.59994 15.25 2.31994 16.04 2.78994L17.77 3.77994C18.68 4.29994 18.99 5.46994 18.47 6.36994C17.56 7.93994 18.3 9.21994 20.11 9.21994C21.15 9.21994 22.01 10.0699 22.01 11.1199V12.8799C22.01 13.9199 21.16 14.7799 20.11 14.7799C18.3 14.7799 17.56 16.0599 18.47 17.6299C18.99 18.5399 18.68 19.6999 17.77 20.2199L16.04 21.2099C15.25 21.6799 14.23 21.3999 13.76 20.6099L13.65 20.4199C12.75 18.8499 11.27 18.8499 10.36 20.4199L10.25 20.6099C9.78 21.3999 8.76 21.6799 7.97 21.2099L6.24 20.2199C5.33 19.6999 5.02 18.5299 5.54 17.6299C6.45 16.0599 5.71 14.7799 3.9 14.7799C2.85 14.7799 2 13.9199 2 12.8799Z" stroke="currentColor" stroke-width="1.5" stroke-miterlimit="10" stroke-linecap="round" stroke-linejoin="round"/></symbol>
<symbol id="ic-logout" viewBox="0 0 24 24" fill="none"><path d="M8.90002 7.55999C9.21002 3.95999 11.06 2.48999 15.11 2.48999H15.24C19.71 2.48999 21.5 4.27999 21.5 8.74999V15.27C21.5 19.74 19.71 21.53 15.24 21.53H15.11C11.09 21.53 9.24002 20.08 8.91002 16.54" stroke="currentColor" stroke-width="1.5" stroke-linecap="round" stroke-linejoin="round"/>
<path d="M15 12H3.62" stroke="currentColor" stroke-width="1.5" stroke-linecap="round" stroke-linejoin="round"/>
<path d="M5.85 8.6499L2.5 11.9999L5.85 15.3499" stroke="currentColor" stroke-width="1.5" stroke-linecap="round" stroke-linejoin="round"/></symbol>
<symbol id="ic-login" viewBox="0 0 24 24" fill="none"><path d="M8.90002 7.55999C9.21002 3.95999 11.06 2.48999 15.11 2.48999H15.24C19.71 2.48999 21.5 4.27999 21.5 8.74999V15.27C21.5 19.74 19.71 21.53 15.24 21.53H15.11C11.09 21.53 9.24002 20.08 8.91002 16.54" stroke="currentColor" stroke-width="1.5" stroke-linecap="round" stroke-linejoin="round"/>
<path d="M2 12H14.88" stroke="currentColor" stroke-width="1.5" stroke-linecap="round" stroke-linejoin="round"/>
<path d="M12.65 8.6499L16 11.9999L12.65 15.3499" stroke="currentColor" stroke-width="1.5" stroke-linecap="round" stroke-linejoin="round"/></symbol>
<symbol id="ic-notification" viewBox="0 0 24 24" fill="none"><path d="M12.02 2.90991C8.70997 2.90991 6.01997 5.59991 6.01997 8.90991V11.7999C6.01997 12.4099 5.75997 13.3399 5.44997 13.8599L4.29997 15.7699C3.58997 16.9499 4.07997 18.2599 5.37997 18.6999C9.68997 20.1399 14.34 20.1399 18.65 18.6999C19.86 18.2999 20.39 16.8699 19.73 15.7699L18.58 13.8599C18.28 13.3399 18.02 12.4099 18.02 11.7999V8.90991C18.02 5.60991 15.32 2.90991 12.02 2.90991Z" stroke="currentColor" stroke-width="1.5" stroke-miterlimit="10" stroke-linecap="round"/>
<path d="M13.87 3.19994C13.56 3.10994 13.24 3.03994 12.91 2.99994C11.95 2.87994 11.03 2.94994 10.17 3.19994C10.46 2.45994 11.18 1.93994 12.02 1.93994C12.86 1.93994 13.58 2.45994 13.87 3.19994Z" stroke="currentColor" stroke-width="1.5" stroke-miterlimit="10" stroke-linecap="round" stroke-linejoin="round"/>
<path d="M15.02 19.0601C15.02 20.7101 13.67 22.0601 12.02 22.0601C11.2 22.0601 10.44 21.7201 9.90002 21.1801C9.36002 20.6401 9.02002 19.8801 9.02002 19.0601" stroke="currentColor" stroke-width="1.5" stroke-miterlimit="10"/></symbol>
<symbol id="ic-notification-bing" viewBox="0 0 24 24" fill="none"><path d="M12 6.43994V9.76994" stroke="currentColor" stroke-width="1.5" stroke-miterlimit="10" stroke-linecap="round"/>
<path d="M12.02 2C8.34002 2 5.36002 4.98 5.36002 8.66V10.76C5.36002 11.44 5.08002 12.46 4.73002 13.04L3.46002 15.16C2.68002 16.47 3.22002 17.93 4.66002 18.41C9.44002 20 14.61 20 19.39 18.41C20.74 17.96 21.32 16.38 20.59 15.16L19.32 13.04C18.97 12.46 18.69 11.43 18.69 10.76V8.66C18.68 5 15.68 2 12.02 2Z" stroke="currentColor" stroke-width="1.5" stroke-miterlimit="10" stroke-linecap="round"/>
<path d="M15.33 18.8201C15.33 20.6501 13.83 22.1501 12 22.1501C11.09 22.1501 10.25 21.7701 9.65004 21.1701C9.05004 20.5701 8.67004 19.7301 8.67004 18.8201" stroke="currentColor" stroke-width="1.5" stroke-miterlimit="10"/></symbol>
<symbol id="ic-search-normal-1" viewBox="0 0 24 24" fill="none"><path d="M11.5 21C16.7467 21 21 16.7467 21 11.5C21 6.25329 16.7467 2 11.5 2C6.25329 2 2 6.25329 2 11.5C2 16.7467 6.25329 21 11.5 21Z" stroke="currentColor" stroke-width="1.5" stroke-linecap="round" stroke-linejoin="round"/>
<path d="M22 22L20 20" stroke="currentColor" stroke-width="1.5" stroke-linecap="round" stroke-linejoin="round"/></symbol>
<symbol id="ic-search-normal" viewBox="0 0 24 24" fill="none"><path d="M11 20C15.9706 20 20 15.9706 20 11C20 6.02944 15.9706 2 11 2C6.02944 2 2 6.02944 2 11C2 15.9706 6.02944 20 11 20Z" stroke="currentColor" stroke-width="1.5" stroke-linecap="round" stroke-linejoin="round"/>
<path d="M18.9299 20.6898C19.4599 22.2898 20.6699 22.4498 21.5999 21.0498C22.4499 19.7698 21.8899 18.7198 20.3499 18.7198C19.2099 18.7098 18.5699 19.5998 18.9299 20.6898Z" stroke="currentColor" stroke-width="1.5" stroke-linecap="round" stroke-linejoin="round"/></symbol>
<symbol id="ic-filter" viewBox="0 0 24 24" fill="none"><path d="M5.40002 2.09998H18.6C19.7 2.09998 20.6 2.99998 20.6 4.09998V6.29998C20.6 7.09998 20.1 8.09998 19.6 8.59998L15.3 12.4C14.7 12.9 14.3 13.9 14.3 14.7V19C14.3 19.6 13.9 20.4 13.4 20.7L12 21.6C10.7 22.4 8.90002 21.5 8.90002 19.9V14.6C8.90002 13.9 8.50002 13 8.10002 12.5L4.30002 8.49998C3.80002 7.99998 3.40002 7.09998 3.40002 6.49998V4.19998C3.40002 2.99998 4.30002 2.09998 5.40002 2.09998Z" stroke="currentColor" stroke-width="1.5" stroke-miterlimit="10" stroke-linecap="round" stroke-linejoin="round"/>
<path d="M10.93 2.09998L6 9.99998" stroke="currentColor" stroke-width="1.5" stroke-miterlimit="10" stroke-linecap="round" stroke-linejoin="round"/></symbol>
<symbol id="ic-arrow-down" viewBox="0 0 24 24" fill="none"><path d="M19.9201 8.94995L13.4001 15.47C12.6301 16.24 11.3701 16.24 10.6001 15.47L4.08008 8.94995" stroke="currentColor" stroke-width="1.5" stroke-miterlimit="10" stroke-linecap="round" stroke-linejoin="round"/></symbol>
<symbol id="ic-arrow-up" viewBox="0 0 24 24" fill="none"><path d="M18.0701 9.57L12.0001 3.5L5.93005 9.57" stroke="currentColor" stroke-width="1.5" stroke-miterlimit="10" stroke-linecap="round" stroke-linejoin="round"/>
<path d="M12 20.4999V3.66992" stroke="currentColor" stroke-width="1.5" stroke-miterlimit="10" stroke-linecap="round" stroke-linejoin="round"/></symbol>
<symbol id="ic-arrow-left" viewBox="0 0 24 24" fill="none"><path d="M9.57 5.92993L3.5 11.9999L9.57 18.0699" stroke="currentColor" stroke-width="1.5" stroke-miterlimit="10" stroke-linecap="round" stroke-linejoin="round"/>
<path d="M20.5 12H3.67004" stroke="currentColor" stroke-width="1.5" stroke-miterlimit="10" stroke-linecap="round" stroke-linejoin="round"/></symbol>
<symbol id="ic-arrow-right" viewBox="0 0 24 24" fill="none"><path d="M14.4301 5.92993L20.5001 11.9999L14.4301 18.0699" stroke="currentColor" stroke-width="1.5" stroke-miterlimit="10" stroke-linecap="round" stroke-linejoin="round"/>
<path d="M3.5 12H20.33" stroke="currentColor" stroke-width="1.5" stroke-miterlimit="10" stroke-linecap="round" stroke-linejoin="round"/></symbol>
<symbol id="ic-arrow-right-3" viewBox="0 0 24 24" fill="none"><path d="M6 11.9999V9.32992C6 6.01992 8.35 4.65992 11.22 6.31992L13.53 7.65992L15.84 8.99992C18.71 10.6599 18.71 13.3699 15.84 15.0299L13.53 16.3699L11.22 17.7099C8.35 19.3399 6 17.9899 6 14.6699V11.9999Z" stroke="currentColor" stroke-width="1.5" stroke-miterlimit="10" stroke-linecap="round" stroke-linejoin="round"/></symbol>
<symbol id="ic-arrow-right-1" viewBox="0 0 24 24" fill="none"><path d="M8.91003 19.9201L15.43 13.4001C16.2 12.6301 16.2 11.3701 15.43 10.6001L8.91003 4.08008" stroke="currentColor" stroke-width="1.5" stroke-miterlimit="10" stroke-linecap="round" stroke-linejoin="round"/></symbol>
<symbol id="ic-close-circle" viewBox="0 0 24 24" fill="none"><path d="M12 22C17.5 22 22 17.5 22 12C22 6.5 17.5 2 12 2C6.5 2 2 6.5 2 12C2 17.5 6.5 22 12 22Z" stroke="currentColor" stroke-width="1.5" stroke-linecap="round" stroke-linejoin="round"/>
<path d="M9.16998 14.83L14.83 9.17004" stroke="currentColor" stroke-width="1.5" stroke-linecap="round" stroke-linejoin="round"/>
<path d="M14.83 14.83L9.16998 9.17004" stroke="currentColor" stroke-width="1.5" stroke-linecap="round" stroke-linejoin="round"/></symbol><symbol id="ic-close" viewBox="0 0 24 24" fill="none"><path d="M6 6L18 18" stroke="currentColor" stroke-width="1.5" stroke-linecap="round" stroke-linejoin="round"/><path d="M18 6L6 18" stroke="currentColor" stroke-width="1.5" stroke-linecap="round" stroke-linejoin="round"/></symbol>
<symbol id="ic-close-square" viewBox="0 0 24 24" fill="none"><path d="M9.16998 14.83L14.83 9.17004" stroke="currentColor" stroke-width="1.5" stroke-linecap="round" stroke-linejoin="round"/>
<path d="M14.83 14.83L9.16998 9.17004" stroke="currentColor" stroke-width="1.5" stroke-linecap="round" stroke-linejoin="round"/>
<path d="M9 22H15C20 22 22 20 22 15V9C22 4 20 2 15 2H9C4 2 2 4 2 9V15C2 20 4 22 9 22Z" stroke="currentColor" stroke-width="1.5" stroke-linecap="round" stroke-linejoin="round"/></symbol>
<symbol id="ic-menu" viewBox="0 0 24 24" fill="none"><path d="M3 7H21" stroke="currentColor" stroke-width="1.5" stroke-linecap="round"/>
<path d="M3 12H21" stroke="currentColor" stroke-width="1.5" stroke-linecap="round"/>
<path d="M3 17H21" stroke="currentColor" stroke-width="1.5" stroke-linecap="round"/></symbol>
<symbol id="ic-add" viewBox="0 0 24 24" fill="none"><path d="M6 12H18" stroke="currentColor" stroke-width="1.5" stroke-linecap="round" stroke-linejoin="round"/>
<path d="M12 18V6" stroke="currentColor" stroke-width="1.5" stroke-linecap="round" stroke-linejoin="round"/></symbol>
<symbol id="ic-add-circle" viewBox="0 0 24 24" fill="none"><path d="M12 22C17.5 22 22 17.5 22 12C22 6.5 17.5 2 12 2C6.5 2 2 6.5 2 12C2 17.5 6.5 22 12 22Z" stroke="currentColor" stroke-width="1.5" stroke-linecap="round" stroke-linejoin="round"/>
<path d="M8 12H16" stroke="currentColor" stroke-width="1.5" stroke-linecap="round" stroke-linejoin="round"/>
<path d="M12 16V8" stroke="currentColor" stroke-width="1.5" stroke-linecap="round" stroke-linejoin="round"/></symbol>
<symbol id="ic-minus" viewBox="0 0 24 24" fill="none"><path d="M6 12H18" stroke="currentColor" stroke-width="1.5" stroke-linecap="round" stroke-linejoin="round"/></symbol>
<symbol id="ic-trash" viewBox="0 0 24 24" fill="none"><path d="M21 5.97998C17.67 5.64998 14.32 5.47998 10.98 5.47998C9 5.47998 7.02 5.57998 5.04 5.77998L3 5.97998" stroke="currentColor" stroke-width="1.5" stroke-linecap="round" stroke-linejoin="round"/>
<path d="M8.5 4.97L8.72 3.66C8.88 2.71 9 2 10.69 2H13.31C15 2 15.13 2.75 15.28 3.67L15.5 4.97" stroke="currentColor" stroke-width="1.5" stroke-linecap="round" stroke-linejoin="round"/>
<path d="M18.85 9.14001L18.2 19.21C18.09 20.78 18 22 15.21 22H8.79002C6.00002 22 5.91002 20.78 5.80002 19.21L5.15002 9.14001" stroke="currentColor" stroke-width="1.5" stroke-linecap="round" stroke-linejoin="round"/>
<path d="M10.33 16.5H13.66" stroke="currentColor" stroke-width="1.5" stroke-linecap="round" stroke-linejoin="round"/>
<path d="M9.5 12.5H14.5" stroke="currentColor" stroke-width="1.5" stroke-linecap="round" stroke-linejoin="round"/></symbol>
<symbol id="ic-edit-2" viewBox="0 0 24 24" fill="none"><path d="M13.26 3.59997L5.04997 12.29C4.73997 12.62 4.43997 13.27 4.37997 13.72L4.00997 16.96C3.87997 18.13 4.71997 18.93 5.87997 18.73L9.09997 18.18C9.54997 18.1 10.18 17.77 10.49 17.43L18.7 8.73997C20.12 7.23997 20.76 5.52997 18.55 3.43997C16.35 1.36997 14.68 2.09997 13.26 3.59997Z" stroke="currentColor" stroke-width="1.5" stroke-miterlimit="10" stroke-linecap="round" stroke-linejoin="round"/>
<path d="M11.89 5.05005C12.32 7.81005 14.56 9.92005 17.34 10.2" stroke="currentColor" stroke-width="1.5" stroke-miterlimit="10" stroke-linecap="round" stroke-linejoin="round"/>
<path d="M3 22H21" stroke="currentColor" stroke-width="1.5" stroke-miterlimit="10" stroke-linecap="round" stroke-linejoin="round"/></symbol>
<symbol id="ic-edit" viewBox="0 0 24 24" fill="none"><path d="M11 2H9C4 2 2 4 2 9V15C2 20 4 22 9 22H15C20 22 22 20 22 15V13" stroke="currentColor" stroke-width="1.5" stroke-linecap="round" stroke-linejoin="round"/>
<path d="M16.04 3.02001L8.16 10.9C7.86 11.2 7.56 11.79 7.5 12.22L7.07 15.23C6.91 16.32 7.68 17.08 8.77 16.93L11.78 16.5C12.2 16.44 12.79 16.14 13.1 15.84L20.98 7.96001C22.34 6.60001 22.98 5.02001 20.98 3.02001C18.98 1.02001 17.4 1.66001 16.04 3.02001Z" stroke="currentColor" stroke-width="1.5" stroke-miterlimit="10" stroke-linecap="round" stroke-linejoin="round"/>
<path d="M14.91 4.1499C15.58 6.5399 17.45 8.4099 19.85 9.0899" stroke="currentColor" stroke-width="1.5" stroke-miterlimit="10" stroke-linecap="round" stroke-linejoin="round"/></symbol>
<symbol id="ic-copy" viewBox="0 0 24 24" fill="none"><path d="M16 12.9V17.1C16 20.6 14.6 22 11.1 22H6.9C3.4 22 2 20.6 2 17.1V12.9C2 9.4 3.4 8 6.9 8H11.1C14.6 8 16 9.4 16 12.9Z" stroke="currentColor" stroke-width="1.5" stroke-linecap="round" stroke-linejoin="round"/>
<path d="M22 6.9V11.1C22 14.6 20.6 16 17.1 16H16V12.9C16 9.4 14.6 8 11.1 8H8V6.9C8 3.4 9.4 2 12.9 2H17.1C20.6 2 22 3.4 22 6.9Z" stroke="currentColor" stroke-width="1.5" stroke-linecap="round" stroke-linejoin="round"/></symbol>
<symbol id="ic-eye" viewBox="0 0 24 24" fill="none"><path d="M15.58 12C15.58 13.98 13.98 15.58 12 15.58C10.02 15.58 8.42004 13.98 8.42004 12C8.42004 10.02 10.02 8.42004 12 8.42004C13.98 8.42004 15.58 10.02 15.58 12Z" stroke="currentColor" stroke-width="1.5" stroke-linecap="round" stroke-linejoin="round"/>
<path d="M12 20.27C15.53 20.27 18.82 18.19 21.11 14.59C22.01 13.18 22.01 10.81 21.11 9.39997C18.82 5.79997 15.53 3.71997 12 3.71997C8.46997 3.71997 5.17997 5.79997 2.88997 9.39997C1.98997 10.81 1.98997 13.18 2.88997 14.59C5.17997 18.19 8.46997 20.27 12 20.27Z" stroke="currentColor" stroke-width="1.5" stroke-linecap="round" stroke-linejoin="round"/></symbol>
<symbol id="ic-eye-slash" viewBox="0 0 24 24" fill="none"><path d="M14.53 9.47004L9.47004 14.53C8.82004 13.88 8.42004 12.99 8.42004 12C8.42004 10.02 10.02 8.42004 12 8.42004C12.99 8.42004 13.88 8.82004 14.53 9.47004Z" stroke="currentColor" stroke-width="1.5" stroke-linecap="round" stroke-linejoin="round"/>
<path d="M17.82 5.76998C16.07 4.44998 14.07 3.72998 12 3.72998C8.46997 3.72998 5.17997 5.80998 2.88997 9.40998C1.98997 10.82 1.98997 13.19 2.88997 14.6C3.67997 15.84 4.59997 16.91 5.59997 17.77" stroke="currentColor" stroke-width="1.5" stroke-linecap="round" stroke-linejoin="round"/>
<path d="M8.42004 19.5301C9.56004 20.0101 10.77 20.2701 12 20.2701C15.53 20.2701 18.82 18.1901 21.11 14.5901C22.01 13.1801 22.01 10.8101 21.11 9.40005C20.78 8.88005 20.42 8.39005 20.05 7.93005" stroke="currentColor" stroke-width="1.5" stroke-linecap="round" stroke-linejoin="round"/>
<path d="M15.5099 12.7C15.2499 14.11 14.0999 15.26 12.6899 15.52" stroke="currentColor" stroke-width="1.5" stroke-linecap="round" stroke-linejoin="round"/>
<path d="M9.47 14.53L2 22" stroke="currentColor" stroke-width="1.5" stroke-linecap="round" stroke-linejoin="round"/>
<path d="M22 2L14.53 9.47" stroke="currentColor" stroke-width="1.5" stroke-linecap="round" stroke-linejoin="round"/></symbol>
<symbol id="ic-export" viewBox="0 0 24 24" fill="none"><path d="M16.44 8.8999C20.04 9.2099 21.51 11.0599 21.51 15.1099V15.2399C21.51 19.7099 19.72 21.4999 15.25 21.4999H8.73998C4.26998 21.4999 2.47998 19.7099 2.47998 15.2399V15.1099C2.47998 11.0899 3.92998 9.2399 7.46998 8.9099" stroke="currentColor" stroke-width="1.5" stroke-linecap="round" stroke-linejoin="round"/>
<path d="M12 15.0001V3.62012" stroke="currentColor" stroke-width="1.5" stroke-linecap="round" stroke-linejoin="round"/>
<path d="M15.35 5.85L12 2.5L8.65002 5.85" stroke="currentColor" stroke-width="1.5" stroke-linecap="round" stroke-linejoin="round"/></symbol>
<symbol id="ic-import" viewBox="0 0 24 24" fill="none"><path d="M12 2C6.48 2 2 6.48 2 12C2 17.52 6.48 22 12 22C17.52 22 22 17.52 22 12" stroke="currentColor" stroke-width="1.5" stroke-miterlimit="10" stroke-linecap="round" stroke-linejoin="round"/>
<path d="M22 2L13.8 10.2" stroke="currentColor" stroke-width="1.5" stroke-linecap="round" stroke-linejoin="round"/>
<path d="M13 6.17004V11H17.83" stroke="currentColor" stroke-width="1.5" stroke-linecap="round" stroke-linejoin="round"/></symbol>
<symbol id="ic-send-2" viewBox="0 0 24 24" fill="none"><path d="M7.39999 6.32003L15.89 3.49003C19.7 2.22003 21.77 4.30003 20.51 8.11003L17.68 16.6C15.78 22.31 12.66 22.31 10.76 16.6L9.91999 14.08L7.39999 13.24C1.68999 11.34 1.68999 8.23003 7.39999 6.32003Z" stroke="currentColor" stroke-width="1.5" stroke-linecap="round" stroke-linejoin="round"/>
<path d="M10.11 13.6501L13.69 10.0601" stroke="currentColor" stroke-width="1.5" stroke-linecap="round" stroke-linejoin="round"/></symbol>
<symbol id="ic-sms" viewBox="0 0 24 24" fill="none"><path d="M17 20.5H7C4 20.5 2 19 2 15.5V8.5C2 5 4 3.5 7 3.5H17C20 3.5 22 5 22 8.5V15.5C22 19 20 20.5 17 20.5Z" stroke="currentColor" stroke-width="1.5" stroke-miterlimit="10" stroke-linecap="round" stroke-linejoin="round"/>
<path d="M17 9L13.87 11.5C12.84 12.32 11.15 12.32 10.12 11.5L7 9" stroke="currentColor" stroke-width="1.5" stroke-miterlimit="10" stroke-linecap="round" stroke-linejoin="round"/></symbol>
<symbol id="ic-call" viewBox="0 0 24 24" fill="none"><path d="M21.97 18.33C21.97 18.69 21.89 19.06 21.72 19.42C21.55 19.78 21.33 20.12 21.04 20.44C20.55 20.98 20.01 21.37 19.4 21.62C18.8 21.87 18.15 22 17.45 22C16.43 22 15.34 21.76 14.19 21.27C13.04 20.78 11.89 20.12 10.75 19.29C9.6 18.45 8.51 17.52 7.47 16.49C6.44 15.45 5.51 14.36 4.68 13.22C3.86 12.08 3.2 10.94 2.72 9.81C2.24 8.67 2 7.58 2 6.54C2 5.86 2.12 5.21 2.36 4.61C2.6 4 2.98 3.44 3.51 2.94C4.15 2.31 4.85 2 5.59 2C5.87 2 6.15 2.06 6.4 2.18C6.66 2.3 6.89 2.48 7.07 2.74L9.39 6.01C9.57 6.26 9.7 6.49 9.79 6.71C9.88 6.92 9.93 7.13 9.93 7.32C9.93 7.56 9.86 7.8 9.72 8.03C9.59 8.26 9.4 8.5 9.16 8.74L8.4 9.53C8.29 9.64 8.24 9.77 8.24 9.93C8.24 10.01 8.25 10.08 8.27 10.16C8.3 10.24 8.33 10.3 8.35 10.36C8.53 10.69 8.84 11.12 9.28 11.64C9.73 12.16 10.21 12.69 10.73 13.22C11.27 13.75 11.79 14.24 12.32 14.69C12.84 15.13 13.27 15.43 13.61 15.61C13.66 15.63 13.72 15.66 13.79 15.69C13.87 15.72 13.95 15.73 14.04 15.73C14.21 15.73 14.34 15.67 14.45 15.56L15.21 14.81C15.46 14.56 15.7 14.37 15.93 14.25C16.16 14.11 16.39 14.04 16.64 14.04C16.83 14.04 17.03 14.08 17.25 14.17C17.47 14.26 17.7 14.39 17.95 14.56L21.26 16.91C21.52 17.09 21.7 17.3 21.81 17.55C21.91 17.8 21.97 18.05 21.97 18.33Z" stroke="currentColor" stroke-width="1.5" stroke-miterlimit="10"/></symbol>
<symbol id="ic-calendar" viewBox="0 0 24 24" fill="none"><path d="M8 2V5" stroke="currentColor" stroke-width="1.5" stroke-miterlimit="10" stroke-linecap="round" stroke-linejoin="round"/>
<path d="M16 2V5" stroke="currentColor" stroke-width="1.5" stroke-miterlimit="10" stroke-linecap="round" stroke-linejoin="round"/>
<path d="M3.5 9.08997H20.5" stroke="currentColor" stroke-width="1.5" stroke-miterlimit="10" stroke-linecap="round" stroke-linejoin="round"/>
<path d="M21 8.5V17C21 20 19.5 22 16 22H8C4.5 22 3 20 3 17V8.5C3 5.5 4.5 3.5 8 3.5H16C19.5 3.5 21 5.5 21 8.5Z" stroke="currentColor" stroke-width="1.5" stroke-miterlimit="10" stroke-linecap="round" stroke-linejoin="round"/>
<path d="M15.6947 13.7H15.7037" stroke="currentColor" stroke-width="2" stroke-linecap="round" stroke-linejoin="round"/>
<path d="M15.6947 16.7H15.7037" stroke="currentColor" stroke-width="2" stroke-linecap="round" stroke-linejoin="round"/>
<path d="M11.9955 13.7H12.0045" stroke="currentColor" stroke-width="2" stroke-linecap="round" stroke-linejoin="round"/>
<path d="M11.9955 16.7H12.0045" stroke="currentColor" stroke-width="2" stroke-linecap="round" stroke-linejoin="round"/>
<path d="M8.29431 13.7H8.30329" stroke="currentColor" stroke-width="2" stroke-linecap="round" stroke-linejoin="round"/>
<path d="M8.29431 16.7H8.30329" stroke="currentColor" stroke-width="2" stroke-linecap="round" stroke-linejoin="round"/></symbol>
<symbol id="ic-calendar-2" viewBox="0 0 24 24" fill="none"><path d="M8 2V5" stroke="currentColor" stroke-width="1.5" stroke-miterlimit="10" stroke-linecap="round" stroke-linejoin="round"/>
<path d="M16 2V5" stroke="currentColor" stroke-width="1.5" stroke-miterlimit="10" stroke-linecap="round" stroke-linejoin="round"/>
<path d="M3.5 9.08997H20.5" stroke="currentColor" stroke-width="1.5" stroke-miterlimit="10" stroke-linecap="round" stroke-linejoin="round"/>
<path d="M21 8.5V17C21 20 19.5 22 16 22H8C4.5 22 3 20 3 17V8.5C3 5.5 4.5 3.5 8 3.5H16C19.5 3.5 21 5.5 21 8.5Z" stroke="currentColor" stroke-width="1.5" stroke-miterlimit="10" stroke-linecap="round" stroke-linejoin="round"/>
<path d="M11.9955 13.7H12.0045" stroke="currentColor" stroke-width="2" stroke-linecap="round" stroke-linejoin="round"/>
<path d="M8.29431 13.7H8.30329" stroke="currentColor" stroke-width="2" stroke-linecap="round" stroke-linejoin="round"/>
<path d="M8.29431 16.7H8.30329" stroke="currentColor" stroke-width="2" stroke-linecap="round" stroke-linejoin="round"/></symbol>
<symbol id="ic-calendar-tick" viewBox="0 0 24 24" fill="none"><path d="M8 2V5" stroke="currentColor" stroke-width="1.5" stroke-miterlimit="10" stroke-linecap="round" stroke-linejoin="round"/>
<path d="M16 2V5" stroke="currentColor" stroke-width="1.5" stroke-miterlimit="10" stroke-linecap="round" stroke-linejoin="round"/>
<path d="M3.5 9.08997H20.5" stroke="currentColor" stroke-width="1.5" stroke-miterlimit="10" stroke-linecap="round" stroke-linejoin="round"/>
<path d="M22 19C22 19.75 21.79 20.46 21.42 21.06C20.73 22.22 19.46 23 18 23C16.99 23 16.07 22.63 15.37 22C15.06 21.74 14.79 21.42 14.58 21.06C14.21 20.46 14 19.75 14 19C14 16.79 15.79 15 18 15C19.2 15 20.27 15.53 21 16.36C21.62 17.07 22 17.99 22 19Z" stroke="currentColor" stroke-width="1.5" stroke-miterlimit="10" stroke-linecap="round" stroke-linejoin="round"/>
<path d="M16.4399 19L17.4299 19.99L19.5599 18.02" stroke="currentColor" stroke-width="1.5" stroke-linecap="round" stroke-linejoin="round"/>
<path d="M21 8.5V16.36C20.27 15.53 19.2 15 18 15C15.79 15 14 16.79 14 19C14 19.75 14.21 20.46 14.58 21.06C14.79 21.42 15.06 21.74 15.37 22H8C4.5 22 3 20 3 17V8.5C3 5.5 4.5 3.5 8 3.5H16C19.5 3.5 21 5.5 21 8.5Z" stroke="currentColor" stroke-width="1.5" stroke-miterlimit="10" stroke-linecap="round" stroke-linejoin="round"/>
<path d="M11.9955 13.7H12.0045" stroke="currentColor" stroke-width="2" stroke-linecap="round" stroke-linejoin="round"/>
<path d="M8.29431 13.7H8.30329" stroke="currentColor" stroke-width="2" stroke-linecap="round" stroke-linejoin="round"/>
<path d="M8.29431 16.7H8.30329" stroke="currentColor" stroke-width="2" stroke-linecap="round" stroke-linejoin="round"/></symbol>
<symbol id="ic-calendar-add" viewBox="0 0 24 24" fill="none"><path d="M8 2V5" stroke="currentColor" stroke-width="1.5" stroke-miterlimit="10" stroke-linecap="round" stroke-linejoin="round"/>
<path d="M16 2V5" stroke="currentColor" stroke-width="1.5" stroke-miterlimit="10" stroke-linecap="round" stroke-linejoin="round"/>
<path d="M3.5 9.08997H20.5" stroke="currentColor" stroke-width="1.5" stroke-miterlimit="10" stroke-linecap="round" stroke-linejoin="round"/>
<path d="M18 23C20.2091 23 22 21.2091 22 19C22 16.7909 20.2091 15 18 15C15.7909 15 14 16.7909 14 19C14 21.2091 15.7909 23 18 23Z" stroke="currentColor" stroke-width="1.5" stroke-miterlimit="10" stroke-linecap="round" stroke-linejoin="round"/>
<path d="M19.49 19.0499H16.51" stroke="currentColor" stroke-width="1.5" stroke-miterlimit="10" stroke-linecap="round" stroke-linejoin="round"/>
<path d="M18 17.59V20.58" stroke="currentColor" stroke-width="1.5" stroke-miterlimit="10" stroke-linecap="round" stroke-linejoin="round"/>
<path d="M21 8.5V16.36C20.27 15.53 19.2 15 18 15C15.79 15 14 16.79 14 19C14 19.75 14.21 20.46 14.58 21.06C14.79 21.42 15.06 21.74 15.37 22H8C4.5 22 3 20 3 17V8.5C3 5.5 4.5 3.5 8 3.5H16C19.5 3.5 21 5.5 21 8.5Z" stroke="currentColor" stroke-width="1.5" stroke-miterlimit="10" stroke-linecap="round" stroke-linejoin="round"/>
<path d="M11.9955 13.7H12.0045" stroke="currentColor" stroke-width="2" stroke-linecap="round" stroke-linejoin="round"/>
<path d="M8.29431 13.7H8.30329" stroke="currentColor" stroke-width="2" stroke-linecap="round" stroke-linejoin="round"/>
<path d="M8.29431 16.7H8.30329" stroke="currentColor" stroke-width="2" stroke-linecap="round" stroke-linejoin="round"/></symbol>
<symbol id="ic-user" viewBox="0 0 24 24" fill="none"><path d="M12 12C14.7614 12 17 9.76142 17 7C17 4.23858 14.7614 2 12 2C9.23858 2 7 4.23858 7 7C7 9.76142 9.23858 12 12 12Z" stroke="currentColor" stroke-width="1.5" stroke-linecap="round" stroke-linejoin="round"/>
<path d="M20.5899 22C20.5899 18.13 16.7399 15 11.9999 15C7.25991 15 3.40991 18.13 3.40991 22" stroke="currentColor" stroke-width="1.5" stroke-linecap="round" stroke-linejoin="round"/></symbol>
<symbol id="ic-user-add" viewBox="0 0 24 24" fill="none"><path d="M12 12C14.7614 12 17 9.76142 17 7C17 4.23858 14.7614 2 12 2C9.23858 2 7 4.23858 7 7C7 9.76142 9.23858 12 12 12Z" stroke="currentColor" stroke-width="1.5" stroke-linecap="round" stroke-linejoin="round"/>
<path d="M3.40991 22C3.40991 18.13 7.25991 15 11.9999 15C12.9599 15 13.8899 15.13 14.7599 15.37" stroke="currentColor" stroke-width="1.5" stroke-linecap="round" stroke-linejoin="round"/>
<path d="M22 18C22 18.32 21.96 18.63 21.88 18.93C21.79 19.33 21.63 19.72 21.42 20.06C20.73 21.22 19.46 22 18 22C16.97 22 16.04 21.61 15.34 20.97C15.04 20.71 14.78 20.4 14.58 20.06C14.21 19.46 14 18.75 14 18C14 16.92 14.43 15.93 15.13 15.21C15.86 14.46 16.88 14 18 14C19.18 14 20.25 14.51 20.97 15.33C21.61 16.04 22 16.98 22 18Z" stroke="currentColor" stroke-width="1.5" stroke-miterlimit="10" stroke-linecap="round" stroke-linejoin="round"/>
<path d="M19.49 17.98H16.51" stroke="currentColor" stroke-width="1.5" stroke-miterlimit="10" stroke-linecap="round" stroke-linejoin="round"/>
<path d="M18 16.52V19.51" stroke="currentColor" stroke-width="1.5" stroke-miterlimit="10" stroke-linecap="round" stroke-linejoin="round"/></symbol>
<symbol id="ic-user-tick" viewBox="0 0 24 24" fill="none"><path d="M12 12C14.7614 12 17 9.76142 17 7C17 4.23858 14.7614 2 12 2C9.23858 2 7 4.23858 7 7C7 9.76142 9.23858 12 12 12Z" stroke="currentColor" stroke-width="1.5" stroke-linecap="round" stroke-linejoin="round"/>
<path d="M3.41003 22C3.41003 18.13 7.26003 15 12 15C12.96 15 13.89 15.13 14.76 15.37" stroke="currentColor" stroke-width="1.5" stroke-linecap="round" stroke-linejoin="round"/>
<path d="M22 18C22 18.75 21.79 19.46 21.42 20.06C21.21 20.42 20.94 20.74 20.63 21C19.93 21.63 19.01 22 18 22C16.54 22 15.27 21.22 14.58 20.06C14.21 19.46 14 18.75 14 18C14 16.74 14.58 15.61 15.5 14.88C16.19 14.33 17.06 14 18 14C20.21 14 22 15.79 22 18Z" stroke="currentColor" stroke-width="1.5" stroke-miterlimit="10" stroke-linecap="round" stroke-linejoin="round"/>
<path d="M16.4399 18L17.4299 18.99L19.5599 17.02" stroke="currentColor" stroke-width="1.5" stroke-linecap="round" stroke-linejoin="round"/></symbol>
<symbol id="ic-people" viewBox="0 0 24 24" fill="none"><path d="M18 7.16C17.94 7.15 17.87 7.15 17.81 7.16C16.43 7.11 15.33 5.98 15.33 4.58C15.33 3.15 16.48 2 17.91 2C19.34 2 20.49 3.16 20.49 4.58C20.48 5.98 19.38 7.11 18 7.16Z" stroke="currentColor" stroke-width="1.5" stroke-linecap="round" stroke-linejoin="round"/>
<path d="M16.9699 14.44C18.3399 14.67 19.8499 14.43 20.9099 13.72C22.3199 12.78 22.3199 11.24 20.9099 10.3C19.8399 9.59004 18.3099 9.35003 16.9399 9.59003" stroke="currentColor" stroke-width="1.5" stroke-linecap="round" stroke-linejoin="round"/>
<path d="M5.96998 7.16C6.02998 7.15 6.09998 7.15 6.15998 7.16C7.53998 7.11 8.63998 5.98 8.63998 4.58C8.63998 3.15 7.48998 2 6.05998 2C4.62998 2 3.47998 3.16 3.47998 4.58C3.48998 5.98 4.58998 7.11 5.96998 7.16Z" stroke="currentColor" stroke-width="1.5" stroke-linecap="round" stroke-linejoin="round"/>
<path d="M6.99994 14.44C5.62994 14.67 4.11994 14.43 3.05994 13.72C1.64994 12.78 1.64994 11.24 3.05994 10.3C4.12994 9.59004 5.65994 9.35003 7.02994 9.59003" stroke="currentColor" stroke-width="1.5" stroke-linecap="round" stroke-linejoin="round"/>
<path d="M12 14.63C11.94 14.62 11.87 14.62 11.81 14.63C10.43 14.58 9.32996 13.45 9.32996 12.05C9.32996 10.62 10.48 9.46997 11.91 9.46997C13.34 9.46997 14.49 10.63 14.49 12.05C14.48 13.45 13.38 14.59 12 14.63Z" stroke="currentColor" stroke-width="1.5" stroke-linecap="round" stroke-linejoin="round"/>
<path d="M9.08997 17.78C7.67997 18.72 7.67997 20.26 9.08997 21.2C10.69 22.27 13.31 22.27 14.91 21.2C16.32 20.26 16.32 18.72 14.91 17.78C13.32 16.72 10.69 16.72 9.08997 17.78Z" stroke="currentColor" stroke-width="1.5" stroke-linecap="round" stroke-linejoin="round"/></symbol>
<symbol id="ic-money-4" viewBox="0 0 24 24" fill="none"><path d="M17 20.5H7C4 20.5 2 19 2 15.5V8.5C2 5 4 3.5 7 3.5H17C20 3.5 22 5 22 8.5V15.5C22 19 20 20.5 17 20.5Z" stroke="currentColor" stroke-width="1.5" stroke-miterlimit="10" stroke-linecap="round" stroke-linejoin="round"/>
<path d="M12 15C13.6569 15 15 13.6569 15 12C15 10.3431 13.6569 9 12 9C10.3431 9 9 10.3431 9 12C9 13.6569 10.3431 15 12 15Z" stroke="currentColor" stroke-width="1.5" stroke-miterlimit="10" stroke-linecap="round" stroke-linejoin="round"/>
<path d="M8.5 6H7C5.62 6 4.5 7.12 4.5 8.5V10" stroke="currentColor" stroke-width="1.5" stroke-miterlimit="10" stroke-linecap="round" stroke-linejoin="round"/>
<path d="M15.5 6H17C18.38 6 19.5 7.12 19.5 8.5V10" stroke="currentColor" stroke-width="1.5" stroke-miterlimit="10" stroke-linecap="round" stroke-linejoin="round"/>
<path d="M8.5 18H7C5.62 18 4.5 16.88 4.5 15.5V14" stroke="currentColor" stroke-width="1.5" stroke-miterlimit="10" stroke-linecap="round" stroke-linejoin="round"/>
<path d="M15.5 18H17C18.38 18 19.5 16.88 19.5 15.5V14" stroke="currentColor" stroke-width="1.5" stroke-miterlimit="10" stroke-linecap="round" stroke-linejoin="round"/></symbol>
<symbol id="ic-moneys" viewBox="0 0 24 24" fill="none"><path d="M19.3 7.91998V13.07C19.3 16.15 17.54 17.47 14.9 17.47H6.10995C5.65995 17.47 5.22996 17.43 4.82996 17.34C4.57996 17.3 4.33996 17.23 4.11996 17.15C2.61996 16.59 1.70996 15.29 1.70996 13.07V7.91998C1.70996 4.83998 3.46995 3.52002 6.10995 3.52002H14.9C17.14 3.52002 18.75 4.47001 19.18 6.64001C19.25 7.04001 19.3 7.44998 19.3 7.91998Z" stroke="currentColor" stroke-width="1.5" stroke-miterlimit="10" stroke-linecap="round" stroke-linejoin="round"/>
<path d="M22.3011 10.9201V16.0701C22.3011 19.1501 20.5411 20.4701 17.9011 20.4701H9.11105C8.37105 20.4701 7.70106 20.3701 7.12106 20.1501C5.93106 19.7101 5.12105 18.8001 4.83105 17.3401C5.23105 17.4301 5.66105 17.4701 6.11105 17.4701H14.9011C17.5411 17.4701 19.3011 16.1501 19.3011 13.0701V7.9201C19.3011 7.4501 19.2611 7.03014 19.1811 6.64014C21.0811 7.04014 22.3011 8.38011 22.3011 10.9201Z" stroke="currentColor" stroke-width="1.5" stroke-miterlimit="10" stroke-linecap="round" stroke-linejoin="round"/>
<path d="M10.4984 13.1399C11.9564 13.1399 13.1384 11.9579 13.1384 10.4999C13.1384 9.04185 11.9564 7.85986 10.4984 7.85986C9.04038 7.85986 7.8584 9.04185 7.8584 10.4999C7.8584 11.9579 9.04038 13.1399 10.4984 13.1399Z" stroke="currentColor" stroke-width="1.5" stroke-miterlimit="10" stroke-linecap="round" stroke-linejoin="round"/>
<path d="M4.78003 8.30005V12.7001" stroke="currentColor" stroke-width="1.5" stroke-miterlimit="10" stroke-linecap="round" stroke-linejoin="round"/>
<path d="M16.2217 8.30029V12.7003" stroke="currentColor" stroke-width="1.5" stroke-miterlimit="10" stroke-linecap="round" stroke-linejoin="round"/></symbol>
<symbol id="ic-dollar-circle" viewBox="0 0 24 24" fill="none"><path d="M8.67188 14.3298C8.67188 15.6198 9.66188 16.6598 10.8919 16.6598H13.4019C14.4719 16.6598 15.3419 15.7498 15.3419 14.6298C15.3419 13.4098 14.8119 12.9798 14.0219 12.6998L9.99187 11.2998C9.20187 11.0198 8.67188 10.5898 8.67188 9.36984C8.67188 8.24984 9.54187 7.33984 10.6119 7.33984H13.1219C14.3519 7.33984 15.3419 8.37984 15.3419 9.66984" stroke="currentColor" stroke-width="1.5" stroke-linecap="round" stroke-linejoin="round"/>
<path d="M12 6V18" stroke="currentColor" stroke-width="1.5" stroke-linecap="round" stroke-linejoin="round"/>
<path d="M12 22C17.5228 22 22 17.5228 22 12C22 6.47715 17.5228 2 12 2C6.47715 2 2 6.47715 2 12C2 17.5228 6.47715 22 12 22Z" stroke="currentColor" stroke-width="1.5" stroke-linecap="round" stroke-linejoin="round"/></symbol>
<symbol id="ic-dollar-square" viewBox="0 0 24 24" fill="none"><path d="M8.67188 14.3298C8.67188 15.6198 9.66188 16.6598 10.8919 16.6598H13.4019C14.4719 16.6598 15.3419 15.7498 15.3419 14.6298C15.3419 13.4098 14.8119 12.9798 14.0219 12.6998L9.99187 11.2998C9.20187 11.0198 8.67188 10.5898 8.67188 9.36984C8.67188 8.24984 9.54187 7.33984 10.6119 7.33984H13.1219C14.3519 7.33984 15.3419 8.37984 15.3419 9.66984" stroke="currentColor" stroke-width="1.5" stroke-linecap="round" stroke-linejoin="round"/>
<path d="M12 6V18" stroke="currentColor" stroke-width="1.5" stroke-linecap="round" stroke-linejoin="round"/>
<path d="M15 22H9C4 22 2 20 2 15V9C2 4 4 2 9 2H15C20 2 22 4 22 9V15C22 20 20 22 15 22Z" stroke="currentColor" stroke-width="1.5" stroke-linecap="round" stroke-linejoin="round"/></symbol>
<symbol id="ic-empty-wallet" viewBox="0 0 24 24" fill="none"><path d="M18.04 13.55C17.62 13.96 17.38 14.55 17.44 15.18C17.53 16.26 18.52 17.05 19.6 17.05H21.5V18.24C21.5 20.31 19.81 22 17.74 22H6.26C4.19 22 2.5 20.31 2.5 18.24V11.51C2.5 9.44001 4.19 7.75 6.26 7.75H17.74C19.81 7.75 21.5 9.44001 21.5 11.51V12.95H19.48C18.92 12.95 18.41 13.17 18.04 13.55Z" stroke="currentColor" stroke-width="1.5" stroke-linecap="round" stroke-linejoin="round"/>
<path d="M2.5 12.4101V7.8401C2.5 6.6501 3.23 5.59006 4.34 5.17006L12.28 2.17006C13.52 1.70006 14.85 2.62009 14.85 3.95009V7.75008" stroke="currentColor" stroke-width="1.5" stroke-linecap="round" stroke-linejoin="round"/>
<path d="M22.5588 13.9702V16.0302C22.5588 16.5802 22.1188 17.0302 21.5588 17.0502H19.5988C18.5188 17.0502 17.5288 16.2602 17.4388 15.1802C17.3788 14.5502 17.6188 13.9602 18.0388 13.5502C18.4088 13.1702 18.9188 12.9502 19.4788 12.9502H21.5588C22.1188 12.9702 22.5588 13.4202 22.5588 13.9702Z" stroke="currentColor" stroke-width="1.5" stroke-linecap="round" stroke-linejoin="round"/>
<path d="M7 12H14" stroke="currentColor" stroke-width="1.5" stroke-linecap="round" stroke-linejoin="round"/></symbol>
<symbol id="ic-wallet-3" viewBox="0 0 24 24" fill="none"><path d="M13 11.1499H7" stroke="currentColor" stroke-width="1.5" stroke-linecap="round" stroke-linejoin="round"/>
<path d="M2 11.1501V6.53009C2 4.49009 3.65 2.84009 5.69 2.84009H11.31C13.35 2.84009 15 4.11009 15 6.15009" stroke="currentColor" stroke-width="1.5" stroke-linecap="round" stroke-linejoin="round"/>
<path d="M17.48 12.1999C16.98 12.6799 16.74 13.4199 16.94 14.1799C17.19 15.1099 18.11 15.6999 19.07 15.6999H20V17.1499C20 19.3599 18.21 21.1499 16 21.1499H6C3.79 21.1499 2 19.3599 2 17.1499V10.1499C2 7.9399 3.79 6.1499 6 6.1499H16C18.2 6.1499 20 7.9499 20 10.1499V11.5999H18.92C18.36 11.5999 17.85 11.8199 17.48 12.1999Z" stroke="currentColor" stroke-width="1.5" stroke-linecap="round" stroke-linejoin="round"/>
<path d="M22 12.6201V14.6801C22 15.2401 21.5399 15.7001 20.9699 15.7001H19.0399C17.9599 15.7001 16.97 14.9101 16.88 13.8301C16.82 13.2001 17.0599 12.6101 17.4799 12.2001C17.8499 11.8201 18.36 11.6001 18.92 11.6001H20.9699C21.5399 11.6001 22 12.0601 22 12.6201Z" stroke="currentColor" stroke-width="1.5" stroke-linecap="round" stroke-linejoin="round"/></symbol>
<symbol id="ic-wallet-money" viewBox="0 0 24 24" fill="none"><path d="M10.7516 16.8604V18.8904C10.7516 20.6104 9.15158 22.0004 7.18158 22.0004C5.21158 22.0004 3.60156 20.6104 3.60156 18.8904V16.8604C3.60156 18.5804 5.20158 19.8004 7.18158 19.8004C9.15158 19.8004 10.7516 18.5704 10.7516 16.8604Z" stroke="currentColor" stroke-width="1.5" stroke-linecap="round" stroke-linejoin="round"/>
<path d="M10.7501 14.11C10.7501 14.61 10.6101 15.07 10.3701 15.47C9.78006 16.44 8.57004 17.05 7.17004 17.05C5.77004 17.05 4.56003 16.43 3.97003 15.47C3.73003 15.07 3.59009 14.61 3.59009 14.11C3.59009 13.25 3.99007 12.48 4.63007 11.92C5.28007 11.35 6.17003 11.01 7.16003 11.01C8.15003 11.01 9.04006 11.36 9.69006 11.92C10.3501 12.47 10.7501 13.25 10.7501 14.11Z" stroke="currentColor" stroke-width="1.5" stroke-linecap="round" stroke-linejoin="round"/>
<path d="M10.7516 14.11V16.86C10.7516 18.58 9.15158 19.8 7.18158 19.8C5.21158 19.8 3.60156 18.57 3.60156 16.86V14.11C3.60156 12.39 5.20158 11 7.18158 11C8.17158 11 9.06161 11.35 9.71161 11.91C10.3516 12.47 10.7516 13.25 10.7516 14.11Z" stroke="currentColor" stroke-width="1.5" stroke-linecap="round" stroke-linejoin="round"/>
<path d="M22 10.9699V13.03C22 13.58 21.56 14.0299 21 14.0499H19.0399C17.9599 14.0499 16.97 13.2599 16.88 12.1799C16.82 11.5499 17.0599 10.9599 17.4799 10.5499C17.8499 10.1699 18.36 9.94995 18.92 9.94995H21C21.56 9.96995 22 10.4199 22 10.9699Z" stroke="currentColor" stroke-width="1.5" stroke-linecap="round" stroke-linejoin="round"/>
<path d="M2 10.5V8.5C2 5.78 3.64 3.88 6.19 3.56C6.45 3.52 6.72 3.5 7 3.5H16C16.26 3.5 16.51 3.50999 16.75 3.54999C19.33 3.84999 21 5.76 21 8.5V9.95001H18.92C18.36 9.95001 17.85 10.17 17.48 10.55C17.06 10.96 16.82 11.55 16.88 12.18C16.97 13.26 17.96 14.05 19.04 14.05H21V15.5C21 18.5 19 20.5 16 20.5H13.5" stroke="currentColor" stroke-width="1.5" stroke-linecap="round" stroke-linejoin="round"/></symbol>
<symbol id="ic-card" viewBox="0 0 24 24" fill="none"><path d="M2 8.50488H22" stroke="currentColor" stroke-width="1.5" stroke-miterlimit="10" stroke-linecap="round" stroke-linejoin="round"/>
<path d="M6 16.5049H8" stroke="currentColor" stroke-width="1.5" stroke-miterlimit="10" stroke-linecap="round" stroke-linejoin="round"/>
<path d="M10.5 16.5049H14.5" stroke="currentColor" stroke-width="1.5" stroke-miterlimit="10" stroke-linecap="round" stroke-linejoin="round"/>
<path d="M6.44 3.50488H17.55C21.11 3.50488 22 4.38488 22 7.89488V16.1049C22 19.6149 21.11 20.4949 17.56 20.4949H6.44C2.89 20.5049 2 19.6249 2 16.1149V7.89488C2 4.38488 2.89 3.50488 6.44 3.50488Z" stroke="currentColor" stroke-width="1.5" stroke-linecap="round" stroke-linejoin="round"/></symbol>
<symbol id="ic-card-tick" viewBox="0 0 24 24" fill="none"><path d="M2 10H22" stroke="currentColor" stroke-width="1.5" stroke-miterlimit="10" stroke-linecap="round" stroke-linejoin="round"/>
<path d="M11.5483 20.4998H6.43829C2.88829 20.4998 1.98828 19.6198 1.98828 16.1098V7.88977C1.98828 4.70977 2.72831 3.68977 5.51831 3.52977C5.79831 3.51977 6.10829 3.50977 6.43829 3.50977H17.5483C21.0983 3.50977 21.9983 4.38977 21.9983 7.89977V12.3098" stroke="currentColor" stroke-width="1.5" stroke-linecap="round" stroke-linejoin="round"/>
<path d="M6 16H10" stroke="currentColor" stroke-width="1.5" stroke-miterlimit="10" stroke-linecap="round" stroke-linejoin="round"/>
<path d="M22 18C22 18.75 21.79 19.46 21.42 20.06C20.73 21.22 19.46 22 18 22C16.54 22 15.27 21.22 14.58 20.06C14.21 19.46 14 18.75 14 18C14 15.79 15.79 14 18 14C20.21 14 22 15.79 22 18Z" stroke="currentColor" stroke-width="1.5" stroke-miterlimit="10" stroke-linecap="round" stroke-linejoin="round"/>
<path d="M16.4414 17.9995L17.4314 18.9895L19.5614 17.0195" stroke="currentColor" stroke-width="1.5" stroke-linecap="round" stroke-linejoin="round"/></symbol>
<symbol id="ic-bank" viewBox="0 0 24 24" fill="none"><path d="M12.37 2.15009L21.37 5.75006C21.72 5.89006 22 6.31006 22 6.68006V10.0001C22 10.5501 21.55 11.0001 21 11.0001H3C2.45 11.0001 2 10.5501 2 10.0001V6.68006C2 6.31006 2.28 5.89006 2.63 5.75006L11.63 2.15009C11.83 2.07009 12.17 2.07009 12.37 2.15009Z" stroke="currentColor" stroke-width="1.5" stroke-miterlimit="10" stroke-linecap="round" stroke-linejoin="round"/>
<path d="M22 22H2V19C2 18.45 2.45 18 3 18H21C21.55 18 22 18.45 22 19V22Z" stroke="currentColor" stroke-width="1.5" stroke-miterlimit="10" stroke-linecap="round" stroke-linejoin="round"/>
<path d="M4 18V11" stroke="currentColor" stroke-width="1.5" stroke-miterlimit="10" stroke-linecap="round" stroke-linejoin="round"/>
<path d="M8 18V11" stroke="currentColor" stroke-width="1.5" stroke-miterlimit="10" stroke-linecap="round" stroke-linejoin="round"/>
<path d="M12 18V11" stroke="currentColor" stroke-width="1.5" stroke-miterlimit="10" stroke-linecap="round" stroke-linejoin="round"/>
<path d="M16 18V11" stroke="currentColor" stroke-width="1.5" stroke-miterlimit="10" stroke-linecap="round" stroke-linejoin="round"/>
<path d="M20 18V11" stroke="currentColor" stroke-width="1.5" stroke-miterlimit="10" stroke-linecap="round" stroke-linejoin="round"/>
<path d="M1 22H23" stroke="currentColor" stroke-width="1.5" stroke-miterlimit="10" stroke-linecap="round" stroke-linejoin="round"/>
<path d="M12 8.5C12.8284 8.5 13.5 7.82843 13.5 7C13.5 6.17157 12.8284 5.5 12 5.5C11.1716 5.5 10.5 6.17157 10.5 7C10.5 7.82843 11.1716 8.5 12 8.5Z" stroke="currentColor" stroke-width="1.5" stroke-miterlimit="10" stroke-linecap="round" stroke-linejoin="round"/></symbol>
<symbol id="ic-coin" viewBox="0 0 24 24" fill="none"><path d="M18.5 12.6499V16.3499C18.5 19.4699 15.59 21.9999 12 21.9999C8.41 21.9999 5.5 19.4699 5.5 16.3499V12.6499C5.5 15.7699 8.41 17.9999 12 17.9999C15.59 17.9999 18.5 15.7699 18.5 12.6499Z" stroke="currentColor" stroke-width="1.5" stroke-linecap="round" stroke-linejoin="round"/>
<path d="M18.5 7.65C18.5 8.56 18.25 9.4 17.81 10.12C16.74 11.88 14.54 13 12 13C9.46 13 7.26 11.88 6.19 10.12C5.75 9.4 5.5 8.56 5.5 7.65C5.5 6.09 6.22999 4.68 7.39999 3.66C8.57999 2.63 10.2 2 12 2C13.8 2 15.42 2.63 16.6 3.65C17.77 4.68 18.5 6.09 18.5 7.65Z" stroke="currentColor" stroke-width="1.5" stroke-linecap="round" stroke-linejoin="round"/>
<path d="M18.5 7.65V12.65C18.5 15.77 15.59 18 12 18C8.41 18 5.5 15.77 5.5 12.65V7.65C5.5 4.53 8.41 2 12 2C13.8 2 15.42 2.63 16.6 3.65C17.77 4.68 18.5 6.09 18.5 7.65Z" stroke="currentColor" stroke-width="1.5" stroke-linecap="round" stroke-linejoin="round"/></symbol>
<symbol id="ic-document" viewBox="0 0 24 24" fill="none"><path d="M9 22H15C20 22 22 20 22 15V9C22 4 20 2 15 2H9C4 2 2 4 2 9V15C2 20 4 22 9 22Z" stroke="currentColor" stroke-width="1.5" stroke-linecap="round" stroke-linejoin="round"/>
<path d="M15.75 9H8.25" stroke="currentColor" stroke-width="1.5" stroke-linecap="round" stroke-linejoin="round"/>
<path d="M15.75 15H8.25" stroke="currentColor" stroke-width="1.5" stroke-linecap="round" stroke-linejoin="round"/></symbol>
<symbol id="ic-document-text" viewBox="0 0 24 24" fill="none"><path d="M21 7V17C21 20 19.5 22 16 22H8C4.5 22 3 20 3 17V7C3 4 4.5 2 8 2H16C19.5 2 21 4 21 7Z" stroke="currentColor" stroke-width="1.5" stroke-miterlimit="10" stroke-linecap="round" stroke-linejoin="round"/>
<path d="M14.5 4.5V6.5C14.5 7.6 15.4 8.5 16.5 8.5H18.5" stroke="currentColor" stroke-width="1.5" stroke-miterlimit="10" stroke-linecap="round" stroke-linejoin="round"/>
<path d="M8 13H12" stroke="currentColor" stroke-width="1.5" stroke-miterlimit="10" stroke-linecap="round" stroke-linejoin="round"/>
<path d="M8 17H16" stroke="currentColor" stroke-width="1.5" stroke-miterlimit="10" stroke-linecap="round" stroke-linejoin="round"/></symbol>
<symbol id="ic-document-upload" viewBox="0 0 24 24" fill="none"><path d="M9 17V11L7 13" stroke="currentColor" stroke-width="1.5" stroke-linecap="round" stroke-linejoin="round"/>
<path d="M9 11L11 13" stroke="currentColor" stroke-width="1.5" stroke-linecap="round" stroke-linejoin="round"/>
<path d="M22 10V15C22 20 20 22 15 22H9C4 22 2 20 2 15V9C2 4 4 2 9 2H14" stroke="currentColor" stroke-width="1.5" stroke-linecap="round" stroke-linejoin="round"/>
<path d="M22 10H18C15 10 14 9 14 6V2L22 10Z" stroke="currentColor" stroke-width="1.5" stroke-linecap="round" stroke-linejoin="round"/></symbol>
<symbol id="ic-document-download" viewBox="0 0 24 24" fill="none"><path d="M9 11V17L11 15" stroke="currentColor" stroke-width="1.5" stroke-linecap="round" stroke-linejoin="round"/>
<path d="M9 17L7 15" stroke="currentColor" stroke-width="1.5" stroke-linecap="round" stroke-linejoin="round"/>
<path d="M22 10V15C22 20 20 22 15 22H9C4 22 2 20 2 15V9C2 4 4 2 9 2H14" stroke="currentColor" stroke-width="1.5" stroke-linecap="round" stroke-linejoin="round"/>
<path d="M22 10H18C15 10 14 9 14 6V2L22 10Z" stroke="currentColor" stroke-width="1.5" stroke-linecap="round" stroke-linejoin="round"/></symbol>
<symbol id="ic-clipboard-text" viewBox="0 0 24 24" fill="none"><path d="M8 12.2H15" stroke="currentColor" stroke-width="1.5" stroke-miterlimit="10" stroke-linecap="round" stroke-linejoin="round"/>
<path d="M8 16.2H12.38" stroke="currentColor" stroke-width="1.5" stroke-miterlimit="10" stroke-linecap="round" stroke-linejoin="round"/>
<path d="M10 6H14C16 6 16 5 16 4C16 2 15 2 14 2H10C9 2 8 2 8 4C8 6 9 6 10 6Z" stroke="currentColor" stroke-width="1.5" stroke-miterlimit="10" stroke-linecap="round" stroke-linejoin="round"/>
<path d="M16 4.02002C19.33 4.20002 21 5.43002 21 10V16C21 20 20 22 15 22H9C4 22 3 20 3 16V10C3 5.44002 4.67 4.20002 8 4.02002" stroke="currentColor" stroke-width="1.5" stroke-miterlimit="10" stroke-linecap="round" stroke-linejoin="round"/></symbol>
<symbol id="ic-clipboard-tick" viewBox="0 0 24 24" fill="none"><path d="M9.31 14.7L10.81 16.2L14.81 12.2" stroke="currentColor" stroke-width="1.5" stroke-linecap="round" stroke-linejoin="round"/>
<path d="M10 6H14C16 6 16 5 16 4C16 2 15 2 14 2H10C9 2 8 2 8 4C8 6 9 6 10 6Z" stroke="currentColor" stroke-width="1.5" stroke-miterlimit="10" stroke-linecap="round" stroke-linejoin="round"/>
<path d="M16 4.02002C19.33 4.20002 21 5.43002 21 10V16C21 20 20 22 15 22H9C4 22 3 20 3 16V10C3 5.44002 4.67 4.20002 8 4.02002" stroke="currentColor" stroke-width="1.5" stroke-miterlimit="10" stroke-linecap="round" stroke-linejoin="round"/></symbol>
<symbol id="ic-folder-2" viewBox="0 0 24 24" fill="none"><path d="M22 11V17C22 21 21 22 17 22H7C3 22 2 21 2 17V7C2 3 3 2 7 2H8.5C10 2 10.33 2.44 10.9 3.2L12.4 5.2C12.78 5.7 13 6 14 6H17C21 6 22 7 22 11Z" stroke="currentColor" stroke-width="1.5" stroke-miterlimit="10"/>
<path d="M8 2H17C19 2 20 3 20 5V6.38" stroke="currentColor" stroke-width="1.5" stroke-miterlimit="10" stroke-linecap="round" stroke-linejoin="round"/></symbol>
<symbol id="ic-location" viewBox="0 0 24 24" fill="none"><path d="M12 13.4299C13.7231 13.4299 15.12 12.0331 15.12 10.3099C15.12 8.58681 13.7231 7.18994 12 7.18994C10.2769 7.18994 8.88 8.58681 8.88 10.3099C8.88 12.0331 10.2769 13.4299 12 13.4299Z" stroke="currentColor" stroke-width="1.5"/>
<path d="M3.62001 8.49C5.59001 -0.169998 18.42 -0.159997 20.38 8.5C21.53 13.58 18.37 17.88 15.6 20.54C13.59 22.48 10.41 22.48 8.39001 20.54C5.63001 17.88 2.47001 13.57 3.62001 8.49Z" stroke="currentColor" stroke-width="1.5"/></symbol>
<symbol id="ic-global" viewBox="0 0 24 24" fill="none"><path d="M12 22C17.5228 22 22 17.5228 22 12C22 6.47715 17.5228 2 12 2C6.47715 2 2 6.47715 2 12C2 17.5228 6.47715 22 12 22Z" stroke="currentColor" stroke-width="1.5" stroke-linecap="round" stroke-linejoin="round"/>
<path d="M7.99998 3H8.99998C7.04998 8.84 7.04998 15.16 8.99998 21H7.99998" stroke="currentColor" stroke-width="1.5" stroke-linecap="round" stroke-linejoin="round"/>
<path d="M15 3C16.95 8.84 16.95 15.16 15 21" stroke="currentColor" stroke-width="1.5" stroke-linecap="round" stroke-linejoin="round"/>
<path d="M3 16V15C8.84 16.95 15.16 16.95 21 15V16" stroke="currentColor" stroke-width="1.5" stroke-linecap="round" stroke-linejoin="round"/>
<path d="M3 9.0001C8.84 7.0501 15.16 7.0501 21 9.0001" stroke="currentColor" stroke-width="1.5" stroke-linecap="round" stroke-linejoin="round"/></symbol>
<symbol id="ic-gps" viewBox="0 0 24 24" fill="none"><path d="M12 19.5C16.1421 19.5 19.5 16.1421 19.5 12C19.5 7.85786 16.1421 4.5 12 4.5C7.85786 4.5 4.5 7.85786 4.5 12C4.5 16.1421 7.85786 19.5 12 19.5Z" stroke="currentColor" stroke-width="1.5" stroke-linecap="round" stroke-linejoin="round"/>
<path d="M12 15C13.6569 15 15 13.6569 15 12C15 10.3431 13.6569 9 12 9C10.3431 9 9 10.3431 9 12C9 13.6569 10.3431 15 12 15Z" stroke="currentColor" stroke-width="1.5" stroke-linecap="round" stroke-linejoin="round"/>
<path d="M12 4V2" stroke="currentColor" stroke-width="1.5" stroke-linecap="round" stroke-linejoin="round"/>
<path d="M4 12H2" stroke="currentColor" stroke-width="1.5" stroke-linecap="round" stroke-linejoin="round"/>
<path d="M12 20V22" stroke="currentColor" stroke-width="1.5" stroke-linecap="round" stroke-linejoin="round"/>
<path d="M20 12H22" stroke="currentColor" stroke-width="1.5" stroke-linecap="round" stroke-linejoin="round"/></symbol>
<symbol id="ic-building-4" viewBox="0 0 24 24" fill="none"><path d="M1 22H23" stroke="currentColor" stroke-width="1.5" stroke-miterlimit="10" stroke-linecap="round" stroke-linejoin="round"/>
<path d="M19.78 22.0101V17.55" stroke="currentColor" stroke-width="1.5" stroke-miterlimit="10" stroke-linecap="round" stroke-linejoin="round"/>
<path d="M19.8001 10.8901C18.5801 10.8901 17.6001 11.8701 17.6001 13.0901V15.3601C17.6001 16.5801 18.5801 17.5601 19.8001 17.5601C21.0201 17.5601 22.0001 16.5801 22.0001 15.3601V13.0901C22.0001 11.8701 21.0201 10.8901 19.8001 10.8901Z" stroke="currentColor" stroke-width="1.5" stroke-miterlimit="10" stroke-linecap="round" stroke-linejoin="round"/>
<path d="M2.1001 22V6.03003C2.1001 4.02003 3.10015 3.01001 5.09015 3.01001H11.3201C13.3101 3.01001 14.3001 4.02003 14.3001 6.03003V22" stroke="currentColor" stroke-width="1.5" stroke-miterlimit="10" stroke-linecap="round" stroke-linejoin="round"/>
<path d="M5.80005 8.25H10.7501" stroke="currentColor" stroke-width="1.5" stroke-miterlimit="10" stroke-linecap="round" stroke-linejoin="round"/>
<path d="M5.80005 12H10.7501" stroke="currentColor" stroke-width="1.5" stroke-miterlimit="10" stroke-linecap="round" stroke-linejoin="round"/>
<path d="M8.25 22V18.25" stroke="currentColor" stroke-width="1.5" stroke-miterlimit="10" stroke-linecap="round" stroke-linejoin="round"/></symbol>
<symbol id="ic-building" viewBox="0 0 24 24" fill="none"><path d="M12.5 22.0001H4.07997C2.91997 22.0001 1.96997 21.0701 1.96997 19.9301V5.09011C1.96997 2.47011 3.91997 1.2801 6.30997 2.4501L10.75 4.63011C11.71 5.10011 12.5 6.3501 12.5 7.4101V22.0001Z" stroke="currentColor" stroke-width="1.5" stroke-linecap="round" stroke-linejoin="round"/>
<path d="M21.97 15.0602V18.8402C21.97 21.0002 20.97 22.0002 18.81 22.0002H12.5V10.4202L12.97 10.5202L17.47 11.5302L19.5 11.9802C20.82 12.2702 21.9 12.9502 21.96 14.8702C21.97 14.9302 21.97 14.9902 21.97 15.0602Z" stroke="currentColor" stroke-width="1.5" stroke-linecap="round" stroke-linejoin="round"/>
<path d="M5.5 9H8.97" stroke="currentColor" stroke-width="1.5" stroke-linecap="round" stroke-linejoin="round"/>
<path d="M5.5 13H8.97" stroke="currentColor" stroke-width="1.5" stroke-linecap="round" stroke-linejoin="round"/>
<path d="M17.47 11.53V14.75C17.47 15.99 16.46 17 15.22 17C13.98 17 12.97 15.99 12.97 14.75V10.52L17.47 11.53Z" stroke="currentColor" stroke-width="1.5" stroke-linecap="round" stroke-linejoin="round"/>
<path d="M21.96 14.87C21.9 16.05 20.92 17 19.72 17C18.48 17 17.47 15.99 17.47 14.75V11.53L19.5 11.98C20.82 12.27 21.9 12.95 21.96 14.87Z" stroke="currentColor" stroke-width="1.5" stroke-linecap="round" stroke-linejoin="round"/></symbol>
<symbol id="ic-briefcase" viewBox="0 0 24 24" fill="none"><path d="M7.99995 22H15.9999C20.0199 22 20.7399 20.39 20.9499 18.43L21.6999 10.43C21.9699 7.99 21.2699 6 16.9999 6H6.99995C2.72995 6 2.02995 7.99 2.29995 10.43L3.04995 18.43C3.25995 20.39 3.97995 22 7.99995 22Z" stroke="currentColor" stroke-width="1.5" stroke-miterlimit="10" stroke-linecap="round" stroke-linejoin="round"/>
<path d="M8 6V5.2C8 3.43 8 2 11.2 2H12.8C16 2 16 3.43 16 5.2V6" stroke="currentColor" stroke-width="1.5" stroke-miterlimit="10" stroke-linecap="round" stroke-linejoin="round"/>
<path d="M14 13V14C14 14.01 14 14.01 14 14.02C14 15.11 13.99 16 12 16C10.02 16 10 15.12 10 14.03V13C10 12 10 12 11 12H13C14 12 14 12 14 13Z" stroke="currentColor" stroke-width="1.5" stroke-miterlimit="10" stroke-linecap="round" stroke-linejoin="round"/>
<path d="M21.65 11C19.34 12.68 16.7 13.68 14 14.02" stroke="currentColor" stroke-width="1.5" stroke-miterlimit="10" stroke-linecap="round" stroke-linejoin="round"/>
<path d="M2.62 11.27C4.87 12.81 7.41 13.74 10 14.03" stroke="currentColor" stroke-width="1.5" stroke-miterlimit="10" stroke-linecap="round" stroke-linejoin="round"/></symbol>
<symbol id="ic-tick-circle" viewBox="0 0 24 24" fill="none"><path d="M12 22C17.5 22 22 17.5 22 12C22 6.5 17.5 2 12 2C6.5 2 2 6.5 2 12C2 17.5 6.5 22 12 22Z" stroke="currentColor" stroke-width="1.5" stroke-linecap="round" stroke-linejoin="round"/>
<path d="M7.75 12L10.58 14.83L16.25 9.17004" stroke="currentColor" stroke-width="1.5" stroke-linecap="round" stroke-linejoin="round"/></symbol>
<symbol id="ic-tick-square" viewBox="0 0 24 24" fill="none"><path d="M9 22H15C20 22 22 20 22 15V9C22 4 20 2 15 2H9C4 2 2 4 2 9V15C2 20 4 22 9 22Z" stroke="currentColor" stroke-width="1.5" stroke-linecap="round" stroke-linejoin="round"/>
<path d="M7.75 12L10.58 14.83L16.25 9.17004" stroke="currentColor" stroke-width="1.5" stroke-linecap="round" stroke-linejoin="round"/></symbol>
<symbol id="ic-info-circle" viewBox="0 0 24 24" fill="none"><path d="M12 22C17.5 22 22 17.5 22 12C22 6.5 17.5 2 12 2C6.5 2 2 6.5 2 12C2 17.5 6.5 22 12 22Z" stroke="currentColor" stroke-width="1.5" stroke-linecap="round" stroke-linejoin="round"/>
<path d="M12 8V13" stroke="currentColor" stroke-width="1.5" stroke-linecap="round" stroke-linejoin="round"/>
<path d="M11.9945 16H12.0035" stroke="currentColor" stroke-width="2" stroke-linecap="round" stroke-linejoin="round"/></symbol>
<symbol id="ic-warning-2" viewBox="0 0 24 24" fill="none"><path d="M12 7.75V13" stroke="currentColor" stroke-width="1.5" stroke-linecap="round" stroke-linejoin="round"/>
<path d="M21.08 8.58003V15.42C21.08 16.54 20.48 17.58 19.51 18.15L13.57 21.58C12.6 22.14 11.4 22.14 10.42 21.58L4.47998 18.15C3.50998 17.59 2.90997 16.55 2.90997 15.42V8.58003C2.90997 7.46003 3.50998 6.41999 4.47998 5.84999L10.42 2.42C11.39 1.86 12.59 1.86 13.57 2.42L19.51 5.84999C20.48 6.41999 21.08 7.45003 21.08 8.58003Z" stroke="currentColor" stroke-width="1.5" stroke-linecap="round" stroke-linejoin="round"/>
<path d="M12 16.2V16.2999" stroke="currentColor" stroke-width="2" stroke-linecap="round" stroke-linejoin="round"/></symbol>
<symbol id="ic-shield-tick" viewBox="0 0 24 24" fill="none"><path d="M10.49 2.23006L5.50003 4.11006C4.35003 4.54006 3.41003 5.90006 3.41003 7.12006V14.5501C3.41003 15.7301 4.19003 17.2801 5.14003 17.9901L9.44003 21.2001C10.85 22.2601 13.17 22.2601 14.58 21.2001L18.88 17.9901C19.83 17.2801 20.61 15.7301 20.61 14.5501V7.12006C20.61 5.89006 19.67 4.53006 18.52 4.10006L13.53 2.23006C12.68 1.92006 11.32 1.92006 10.49 2.23006Z" stroke="currentColor" stroke-width="1.5" stroke-linecap="round" stroke-linejoin="round"/>
<path d="M9.05005 11.8701L10.66 13.4801L14.96 9.18005" stroke="currentColor" stroke-width="1.5" stroke-linecap="round" stroke-linejoin="round"/></symbol>
<symbol id="ic-security-safe" viewBox="0 0 24 24" fill="none"><path d="M20.91 11.12C20.91 16.01 17.36 20.59 12.51 21.93C12.18 22.02 11.82 22.02 11.49 21.93C6.63996 20.59 3.08997 16.01 3.08997 11.12V6.72997C3.08997 5.90997 3.70998 4.97998 4.47998 4.66998L10.05 2.39001C11.3 1.88001 12.71 1.88001 13.96 2.39001L19.53 4.66998C20.29 4.97998 20.92 5.90997 20.92 6.72997L20.91 11.12Z" stroke="currentColor" stroke-width="1.5" stroke-linecap="round" stroke-linejoin="round"/>
<path d="M12 12.5C13.1046 12.5 14 11.6046 14 10.5C14 9.39543 13.1046 8.5 12 8.5C10.8954 8.5 10 9.39543 10 10.5C10 11.6046 10.8954 12.5 12 12.5Z" stroke="currentColor" stroke-width="1.5" stroke-miterlimit="10" stroke-linecap="round" stroke-linejoin="round"/>
<path d="M12 12.5V15.5" stroke="currentColor" stroke-width="1.5" stroke-miterlimit="10" stroke-linecap="round" stroke-linejoin="round"/></symbol>
<symbol id="ic-verify" viewBox="0 0 24 24" fill="none"><path d="M8.38 12L10.79 14.42L15.62 9.57996" stroke="currentColor" stroke-width="1.5" stroke-linecap="round" stroke-linejoin="round"/>
<path d="M10.75 2.44995C11.44 1.85995 12.57 1.85995 13.27 2.44995L14.85 3.80995C15.15 4.06995 15.71 4.27995 16.11 4.27995H17.81C18.87 4.27995 19.74 5.14995 19.74 6.20995V7.90995C19.74 8.29995 19.95 8.86995 20.21 9.16995L21.57 10.7499C22.16 11.4399 22.16 12.5699 21.57 13.2699L20.21 14.8499C19.95 15.1499 19.74 15.7099 19.74 16.1099V17.8099C19.74 18.8699 18.87 19.7399 17.81 19.7399H16.11C15.72 19.7399 15.15 19.9499 14.85 20.2099L13.27 21.5699C12.58 22.1599 11.45 22.1599 10.75 21.5699L9.17 20.2099C8.87 19.9499 8.31 19.7399 7.91 19.7399H6.18C5.12 19.7399 4.25 18.8699 4.25 17.8099V16.0999C4.25 15.7099 4.04 15.1499 3.79 14.8499L2.44 13.2599C1.86 12.5699 1.86 11.4499 2.44 10.7599L3.79 9.16995C4.04 8.86995 4.25 8.30995 4.25 7.91995V6.19995C4.25 5.13995 5.12 4.26995 6.18 4.26995H7.91C8.3 4.26995 8.87 4.05995 9.17 3.79995L10.75 2.44995Z" stroke="currentColor" stroke-width="1.5" stroke-linecap="round" stroke-linejoin="round"/></symbol>
<symbol id="ic-more" viewBox="0 0 24 24" fill="none"><circle cx="5" cy="12" r="2" fill="currentColor"/><circle cx="12" cy="12" r="2" fill="currentColor"/><circle cx="19" cy="12" r="2" fill="currentColor"/></symbol>
<symbol id="ic-more-2" viewBox="0 0 24 24" fill="none"><path d="M12.0001 9.32C13.1901 9.32 14.1601 8.35 14.1601 7.16C14.1601 5.97 13.1901 5 12.0001 5C10.8101 5 9.84009 5.97 9.84009 7.16C9.84009 8.35 10.8101 9.32 12.0001 9.32Z" stroke="currentColor" stroke-width="1.5" stroke-linecap="round" stroke-linejoin="round"/>
<path d="M6.78988 18.9999C7.97988 18.9999 8.94988 18.0299 8.94988 16.8399C8.94988 15.6499 7.97988 14.6799 6.78988 14.6799C5.59988 14.6799 4.62988 15.6499 4.62988 16.8399C4.62988 18.0299 5.58988 18.9999 6.78988 18.9999Z" stroke="currentColor" stroke-width="1.5" stroke-linecap="round" stroke-linejoin="round"/>
<path d="M17.21 18.9999C18.4 18.9999 19.37 18.0299 19.37 16.8399C19.37 15.6499 18.4 14.6799 17.21 14.6799C16.02 14.6799 15.05 15.6499 15.05 16.8399C15.05 18.0299 16.02 18.9999 17.21 18.9999Z" stroke="currentColor" stroke-width="1.5" stroke-linecap="round" stroke-linejoin="round"/></symbol>
<symbol id="ic-link-2" viewBox="0 0 24 24" fill="none"><path d="M13.5 12C13.5 15.18 10.93 17.75 7.75 17.75C4.57 17.75 2 15.18 2 12C2 8.82 4.57 6.25 7.75 6.25" stroke="currentColor" stroke-width="1.5" stroke-linecap="round" stroke-linejoin="round"/>
<path d="M10 12C10 8.69 12.69 6 16 6C19.31 6 22 8.69 22 12C22 15.31 19.31 18 16 18" stroke="currentColor" stroke-width="1.5" stroke-linecap="round" stroke-linejoin="round"/></symbol>
<symbol id="ic-link" viewBox="0 0 24 24" fill="none"><path d="M3.27 12C2.48 11.05 2 9.83 2 8.5C2 5.48 4.47 3 7.5 3H12.5C15.52 3 18 5.48 18 8.5C18 11.52 15.53 14 12.5 14H10" stroke="currentColor" stroke-width="1.5" stroke-linecap="round" stroke-linejoin="round"/>
<path d="M20.73 12C21.52 12.95 22 14.17 22 15.5C22 18.52 19.53 21 16.5 21H11.5C8.48 21 6 18.52 6 15.5C6 12.48 8.47 10 11.5 10H14" stroke="currentColor" stroke-width="1.5" stroke-linecap="round" stroke-linejoin="round"/></symbol>
<symbol id="ic-chart-2" viewBox="0 0 24 24" fill="none"><path d="M9 22H15C20 22 22 20 22 15V9C22 4 20 2 15 2H9C4 2 2 4 2 9V15C2 20 4 22 9 22Z" stroke="currentColor" stroke-width="1.5" stroke-linecap="round" stroke-linejoin="round"/>
<path d="M15.5 18.5C16.6 18.5 17.5 17.6 17.5 16.5V7.5C17.5 6.4 16.6 5.5 15.5 5.5C14.4 5.5 13.5 6.4 13.5 7.5V16.5C13.5 17.6 14.39 18.5 15.5 18.5Z" stroke="currentColor" stroke-width="1.5" stroke-linecap="round" stroke-linejoin="round"/>
<path d="M8.5 18.5C9.6 18.5 10.5 17.6 10.5 16.5V13C10.5 11.9 9.6 11 8.5 11C7.4 11 6.5 11.9 6.5 13V16.5C6.5 17.6 7.39 18.5 8.5 18.5Z" stroke="currentColor" stroke-width="1.5" stroke-linecap="round" stroke-linejoin="round"/></symbol>
<symbol id="ic-chart-square" viewBox="0 0 24 24" fill="none"><path d="M10.11 11.1501H7.46005C6.83005 11.1501 6.32007 11.6601 6.32007 12.2901V17.4101H10.11V11.1501V11.1501Z" stroke="currentColor" stroke-width="1.5" stroke-miterlimit="10" stroke-linecap="round" stroke-linejoin="round"/>
<path d="M12.7613 6.6001H11.2413C10.6113 6.6001 10.1013 7.11011 10.1013 7.74011V17.4001H13.8913V7.74011C13.8913 7.11011 13.3913 6.6001 12.7613 6.6001Z" stroke="currentColor" stroke-width="1.5" stroke-miterlimit="10" stroke-linecap="round" stroke-linejoin="round"/>
<path d="M16.5482 12.8501H13.8982V17.4001H17.6882V13.9901C17.6782 13.3601 17.1682 12.8501 16.5482 12.8501Z" stroke="currentColor" stroke-width="1.5" stroke-miterlimit="10" stroke-linecap="round" stroke-linejoin="round"/>
<path d="M9 22H15C20 22 22 20 22 15V9C22 4 20 2 15 2H9C4 2 2 4 2 9V15C2 20 4 22 9 22Z" stroke="currentColor" stroke-width="1.5" stroke-linecap="round" stroke-linejoin="round"/></symbol>
<symbol id="ic-graph" viewBox="0 0 24 24" fill="none"><path d="M18.32 11.9999C20.92 11.9999 22 10.9999 21.04 7.71994C20.39 5.50994 18.49 3.60994 16.28 2.95994C13 1.99994 12 3.07994 12 5.67994V8.55994C12 10.9999 13 11.9999 15 11.9999H18.32Z" stroke="currentColor" stroke-width="1.5" stroke-linecap="round" stroke-linejoin="round"/>
<path d="M19.9999 14.7C19.0699 19.33 14.6299 22.69 9.57993 21.87C5.78993 21.26 2.73993 18.21 2.11993 14.42C1.30993 9.39001 4.64993 4.95001 9.25993 4.01001" stroke="currentColor" stroke-width="1.5" stroke-linecap="round" stroke-linejoin="round"/></symbol>
<symbol id="ic-task-square" viewBox="0 0 24 24" fill="none"><path d="M12.37 8.87988H17.62" stroke="currentColor" stroke-width="1.5" stroke-linecap="round" stroke-linejoin="round"/>
<path d="M6.38 8.87988L7.13 9.62988L9.38 7.37988" stroke="currentColor" stroke-width="1.5" stroke-linecap="round" stroke-linejoin="round"/>
<path d="M12.37 15.8799H17.62" stroke="currentColor" stroke-width="1.5" stroke-linecap="round" stroke-linejoin="round"/>
<path d="M6.38 15.8799L7.13 16.6299L9.38 14.3799" stroke="currentColor" stroke-width="1.5" stroke-linecap="round" stroke-linejoin="round"/>
<path d="M9 22H15C20 22 22 20 22 15V9C22 4 20 2 15 2H9C4 2 2 4 2 9V15C2 20 4 22 9 22Z" stroke="currentColor" stroke-width="1.5" stroke-linecap="round" stroke-linejoin="round"/></symbol>
<symbol id="ic-note-2" viewBox="0 0 24 24" fill="none"><path d="M21.6601 10.44L20.6801 14.62C19.8401 18.23 18.1801 19.69 15.0601 19.39C14.5601 19.35 14.0201 19.26 13.4401 19.12L11.7601 18.72C7.59006 17.73 6.30006 15.67 7.28006 11.49L8.26006 7.30001C8.46006 6.45001 8.70006 5.71001 9.00006 5.10001C10.1701 2.68001 12.1601 2.03001 15.5001 2.82001L17.1701 3.21001C21.3601 4.19001 22.6401 6.26001 21.6601 10.44Z" stroke="currentColor" stroke-width="1.5" stroke-linecap="round" stroke-linejoin="round"/>
<path d="M15.06 19.39C14.44 19.81 13.66 20.16 12.71 20.47L11.13 20.99C7.15998 22.27 5.06997 21.2 3.77997 17.23L2.49997 13.28C1.21997 9.30998 2.27997 7.20998 6.24997 5.92998L7.82997 5.40998C8.23997 5.27998 8.62997 5.16998 8.99997 5.09998C8.69997 5.70998 8.45997 6.44998 8.25997 7.29998L7.27997 11.49C6.29997 15.67 7.58998 17.73 11.76 18.72L13.44 19.12C14.02 19.26 14.56 19.35 15.06 19.39Z" stroke="currentColor" stroke-width="1.5" stroke-linecap="round" stroke-linejoin="round"/>
<path d="M12.64 8.53003L17.49 9.76003" stroke="currentColor" stroke-width="1.5" stroke-linecap="round" stroke-linejoin="round"/>
<path d="M11.66 12.4L14.56 13.14" stroke="currentColor" stroke-width="1.5" stroke-linecap="round" stroke-linejoin="round"/></symbol>
<symbol id="ic-danger" viewBox="0 0 24 24" fill="none"><path d="M12 9V14" stroke="currentColor" stroke-width="1.5" stroke-linecap="round" stroke-linejoin="round"/>
<path d="M12.0001 21.41H5.94005C2.47005 21.41 1.02005 18.93 2.70005 15.9L5.82006 10.28L8.76006 5.00003C10.5401 1.79003 13.4601 1.79003 15.2401 5.00003L18.1801 10.29L21.3001 15.91C22.9801 18.94 21.5201 21.42 18.0601 21.42H12.0001V21.41Z" stroke="currentColor" stroke-width="1.5" stroke-linecap="round" stroke-linejoin="round"/>
<path d="M11.9945 17H12.0035" stroke="currentColor" stroke-width="2" stroke-linecap="round" stroke-linejoin="round"/></symbol>
<symbol id="ic-refresh" viewBox="0 0 24 24" fill="none"><path d="M14.55 21.67C18.84 20.54 22 16.64 22 12C22 6.48 17.56 2 12 2C5.33 2 2 7.56 2 7.56M2 7.56V3M2 7.56H4.01H6.44" stroke="currentColor" stroke-width="1.5" stroke-linecap="round" stroke-linejoin="round"/>
<path d="M2 12C2 17.52 6.48 22 12 22" stroke="currentColor" stroke-width="1.5" stroke-linecap="round" stroke-linejoin="round" stroke-dasharray="3 3"/></symbol>
<symbol id="ic-message-question" viewBox="0 0 24 24" fill="none"><path d="M17 18.4301H13L8.54999 21.39C7.88999 21.83 7 21.3601 7 20.5601V18.4301C4 18.4301 2 16.4301 2 13.4301V7.42999C2 4.42999 4 2.42999 7 2.42999H17C20 2.42999 22 4.42999 22 7.42999V13.4301C22 16.4301 20 18.4301 17 18.4301Z" stroke="currentColor" stroke-width="1.5" stroke-miterlimit="10" stroke-linecap="round" stroke-linejoin="round"/>
<path d="M12.0001 11.36V11.15C12.0001 10.47 12.4201 10.11 12.8401 9.82001C13.2501 9.54001 13.66 9.18002 13.66 8.52002C13.66 7.60002 12.9201 6.85999 12.0001 6.85999C11.0801 6.85999 10.3401 7.60002 10.3401 8.52002" stroke="currentColor" stroke-width="1.5" stroke-linecap="round" stroke-linejoin="round"/>
<path d="M11.9955 13.75H12.0045" stroke="currentColor" stroke-width="1.5" stroke-linecap="round" stroke-linejoin="round"/></symbol>
<symbol id="ic-star" viewBox="0 0 24 24" fill="none"><path d="M15.39 5.21L16.7999 8.02999C16.9899 8.41999 17.4999 8.78999 17.9299 8.86999L20.48 9.28999C22.11 9.55999 22.49 10.74 21.32 11.92L19.3299 13.91C18.9999 14.24 18.81 14.89 18.92 15.36L19.4899 17.82C19.9399 19.76 18.9 20.52 17.19 19.5L14.7999 18.08C14.3699 17.82 13.65 17.82 13.22 18.08L10.8299 19.5C9.11994 20.51 8.07995 19.76 8.52995 17.82L9.09996 15.36C9.20996 14.9 9.01995 14.25 8.68995 13.91L6.69996 11.92C5.52996 10.75 5.90996 9.56999 7.53996 9.28999L10.0899 8.86999C10.5199 8.79999 11.03 8.41999 11.22 8.02999L12.63 5.21C13.38 3.68 14.62 3.68 15.39 5.21Z" stroke="currentColor" stroke-width="1.5" stroke-linecap="round" stroke-linejoin="round"/>
<path d="M8 5H2" stroke="currentColor" stroke-width="1.5" stroke-linecap="round" stroke-linejoin="round"/>
<path d="M5 19H2" stroke="currentColor" stroke-width="1.5" stroke-linecap="round" stroke-linejoin="round"/>
<path d="M3 12H2" stroke="currentColor" stroke-width="1.5" stroke-linecap="round" stroke-linejoin="round"/></symbol>
<symbol id="ic-percentage-square" viewBox="0 0 24 24" fill="none"><path d="M9 2H15C20 2 22 4 22 9V15C22 20 20 22 15 22H9C4 22 2 20 2 15V9C2 4 4 2 9 2Z" stroke="currentColor" stroke-width="1.5" stroke-linecap="round" stroke-linejoin="round"/>
<path d="M8.57007 15.27L15.11 8.72998" stroke="currentColor" stroke-width="1.5" stroke-linecap="round" stroke-linejoin="round"/>
<path d="M8.98001 10.3699C9.65932 10.3699 10.21 9.81923 10.21 9.13992C10.21 8.46061 9.65932 7.90991 8.98001 7.90991C8.3007 7.90991 7.75 8.46061 7.75 9.13992C7.75 9.81923 8.3007 10.3699 8.98001 10.3699Z" stroke="currentColor" stroke-width="1.5" stroke-linecap="round" stroke-linejoin="round"/>
<path d="M15.52 16.0899C16.1993 16.0899 16.75 15.5392 16.75 14.8599C16.75 14.1806 16.1993 13.6299 15.52 13.6299C14.8407 13.6299 14.29 14.1806 14.29 14.8599C14.29 15.5392 14.8407 16.0899 15.52 16.0899Z" stroke="currentColor" stroke-width="1.5" stroke-linecap="round" stroke-linejoin="round"/></symbol>
<symbol id="ic-flash" viewBox="0 0 24 24" fill="none"><path d="M9.31993 13.28H12.4099V20.48C12.4099 21.54 13.7299 22.04 14.4299 21.24L21.9999 12.64C22.6599 11.89 22.1299 10.72 21.1299 10.72H18.0399V3.51997C18.0399 2.45997 16.7199 1.95997 16.0199 2.75997L8.44994 11.36C7.79994 12.11 8.32993 13.28 9.31993 13.28Z" stroke="currentColor" stroke-width="1.5" stroke-miterlimit="10" stroke-linecap="round" stroke-linejoin="round"/>
<path d="M8.5 4H1.5" stroke="currentColor" stroke-width="1.5" stroke-miterlimit="10" stroke-linecap="round" stroke-linejoin="round"/>
<path d="M7.5 20H1.5" stroke="currentColor" stroke-width="1.5" stroke-miterlimit="10" stroke-linecap="round" stroke-linejoin="round"/>
<path d="M4.5 12H1.5" stroke="currentColor" stroke-width="1.5" stroke-miterlimit="10" stroke-linecap="round" stroke-linejoin="round"/></symbol>
<symbol id="ic-lamp-charge" viewBox="0 0 24 24" fill="none"><path d="M12.0001 7.88989L10.9301 9.74989C10.6901 10.1599 10.8901 10.4999 11.3601 10.4999H12.6301C13.1101 10.4999 13.3001 10.8399 13.0601 11.2499L12.0001 13.1099" stroke="currentColor" stroke-width="1.5" stroke-linecap="round" stroke-linejoin="round"/>
<path d="M8.30011 18.0399V16.8799C6.00011 15.4899 4.11011 12.7799 4.11011 9.89993C4.11011 4.94993 8.66011 1.06993 13.8001 2.18993C16.0601 2.68993 18.0401 4.18993 19.0701 6.25993C21.1601 10.4599 18.9601 14.9199 15.7301 16.8699V18.0299C15.7301 18.3199 15.8401 18.9899 14.7701 18.9899H9.26011C8.16011 18.9999 8.30011 18.5699 8.30011 18.0399Z" stroke="currentColor" stroke-width="1.5" stroke-linecap="round" stroke-linejoin="round"/>
<path d="M8.5 22C10.79 21.35 13.21 21.35 15.5 22" stroke="currentColor" stroke-width="1.5" stroke-linecap="round" stroke-linejoin="round"/></symbol>
</svg>
